<svg xmlns="http://www.w3.org/2000/svg" viewBox="0 0 439.13 208.4"><defs><style>.cls-1{fill:#231f20;}</style></defs><g id="Layer_2" data-name="Layer 2"><g id="Layer_1-2" data-name="Layer 1"><path class="cls-1" d="M49.69,88.09H24.48a14.2,14.2,0,0,1-13.9-13.9H49.69V64A24.85,24.85,0,0,0,0,63.62V74.19A25,25,0,0,0,24.48,98.67H49.69ZM24.85,49.59a14.23,14.23,0,0,1,14.26,14H10.58A14.23,14.23,0,0,1,24.85,49.59ZM83.22,39.14H108V49.72H83.22a14.24,14.24,0,0,0-14,13.9H108V73.83A25,25,0,0,1,83.22,98.67H58.75V88.09H83.22a14.43,14.43,0,0,0,14.15-13.9H58.75V64A24.69,24.69,0,0,1,83.22,39.14Zm57.5,0h24.73V49.72H140.72a14.24,14.24,0,0,0-14,13.9h38.75V73.83a25,25,0,0,1-24.73,24.84H116.25V88.09h24.47a14.43,14.43,0,0,0,14.15-13.9H116.25V64A24.69,24.69,0,0,1,140.72,39.14Zm56.89,59.53h25.21V88.09H197.61a14.2,14.2,0,0,1-13.9-13.9h39.11V64a24.85,24.85,0,0,0-49.69-.36V74.19A25,25,0,0,0,197.61,98.67ZM198,49.59a14.23,14.23,0,0,1,14.26,14H183.71A14.23,14.23,0,0,1,198,49.59Zm84.82,14v120.3H272.47V63.62A14.43,14.43,0,0,0,258,49.72,14.2,14.2,0,0,0,243.68,64V98.67H233.11V39.14h10.57v4.55A24.8,24.8,0,0,1,282.8,63.62Zm8.51,10.57V26.72h10.46V39.14h19.68V49.72H301.77V73.83a14.33,14.33,0,0,0,14.14,14.26h10.33V98.67H315.91A24.89,24.89,0,0,1,291.31,74.19Zm56.24,24.48H337V39.14h10.58Zm0-68H337V20.07h10.58Zm87.43,68H424.4V9.74H435ZM53.28,149.24v9.84a14.39,14.39,0,0,0,28.78,0l.37-.37h9.84l.37.37a24.85,24.85,0,0,1-49.69.37V149.24a25,25,0,0,1,23.61-24.85h1.23a24.86,24.86,0,0,1,24.85,24.85l-.37.37H82.43l-.37-.37a14.39,14.39,0,1,0-28.78,0Zm79.88-24.85H104.75v10.46h28.41a14,14,0,0,1,13.9,14V156h-3.32A22.48,22.48,0,1,0,122,183.92a22.37,22.37,0,0,0,21.77-17.46h3.32v17.46h10.58v-35A24.54,24.54,0,0,0,133.16,124.39Zm-11.32,49.2A12.06,12.06,0,1,1,134,161.29,12.19,12.19,0,0,1,121.84,173.59Zm116.88-49.2h-62V111.33H166.24v47.48a24.89,24.89,0,0,0,24.6,24.48h10.33V172.71H190.84a14.33,14.33,0,0,1-14.14-14.27V134.83l33.6,0h28.42a14,14,0,0,1,13.9,14V156H249.3a22.48,22.48,0,1,0-21.77,27.92,22.38,22.38,0,0,0,21.77-17.46h3.32v17.46H263.2v-35A24.54,24.54,0,0,0,238.72,124.39Zm-11.32,49.2a12.06,12.06,0,1,1,12.18-12.3A12.19,12.19,0,0,1,227.4,173.59Zm116-49.2-34.93,84H297L311.76,173l-23.49-48.59H300.2l17,35.55,14.76-35.55Zm85.42,49a14.33,14.33,0,0,1-14.14-14.27V135H435V124.39H414.65V112h0V63.62a24.54,24.54,0,0,0-24.47-24.48H361.75V49.59h28.42a14,14,0,0,1,13.9,14v7.13h-3.32A22.48,22.48,0,1,0,379,98.67a22.39,22.39,0,0,0,21.78-17.46h3.32v43.18H366.19a24.71,24.71,0,0,0-24.48,24.85v10.21h38.62a14.43,14.43,0,0,1-14.14,13.9c-.13.12-.25,0-.37,0H341.71v10.57h24.48a25,25,0,0,0,24.72-24.84V148.87H352.17a14.22,14.22,0,0,1,14-13.9h37.88v24.48c.12,13.4,11.19,24.23,24.72,24.47h10.34V173.35Zm-49.94-85A12.06,12.06,0,1,1,391,76,12.19,12.19,0,0,1,378.85,88.34ZM34,3.08H28.22V0H42.88V3.08H37.09V26.17H34Zm15.2,23.09h-3V0h3V11.51h8.47V0h3.11V26.17H57.65V14.58H49.18Zm30.54,0H65.82V0h13.9V3.08H68.94v8.43h7.92v3.07H68.94v8.47H79.72Z"/></g></g></svg>