<svg xmlns="http://www.w3.org/2000/svg" viewBox="0 0 1705.65 809.47"><defs><style>.cls-1{fill:#231f20;}</style></defs><g id="Layer_2" data-name="Layer 2"><g id="Logo"><path class="cls-1" d="M193,342.17H95.07c-29.62-.48-53.5-24.84-54-54H193V248.53A96.24,96.24,0,0,0,96.51,152C43,152,1,195,0,247.1v41.08c1,51.6,43,94.12,95.07,95.08H193ZM96.51,192.63a55.27,55.27,0,0,1,55.42,54.47H41.09A55.27,55.27,0,0,1,96.51,192.63ZM323.25,152h96v41.09h-96c-29.62,0-53.51,24.37-54.46,54H419.28v39.65c0,53-43,95.55-96,96.51H228.18V342.17h95.07a56,56,0,0,0,54.94-54h-150V248.53C228.18,195.5,270.7,152,323.25,152Zm223.34,0h96v41.09h-96c-29.62,0-53.51,24.37-54.46,54H642.62v39.65c0,53-43,95.55-96,96.51H451.52V342.17h95.07a56.06,56.06,0,0,0,54.95-54h-150V248.53C451.52,195.5,494,152,546.59,152Zm221,231.24h97.94V342.17H767.55a55.2,55.2,0,0,1-54-54H865.49V248.53A96.24,96.24,0,0,0,769,152c-53.51,0-95.55,43-96.51,95.08v41.08C673.43,339.78,715.47,382.3,767.55,383.26ZM769,192.63A55.27,55.27,0,0,1,824.4,247.1H713.56A55.27,55.27,0,0,1,769,192.63Zm329.46,54.47V714.4h-40.13V247.1c-1-30.1-25.8-54-56.38-54a55.16,55.16,0,0,0-55.42,55.42V383.26H905.43V152h41.08V169.7a96.32,96.32,0,0,1,151.93,77.4Zm33.06,41.08V103.77h40.61V152h76.45v41.09h-76.45v93.64a55.67,55.67,0,0,0,55,55.42h40.13v41.09h-40.13C1174.5,382.3,1132,340.26,1131.5,288.18ZM1350,383.26h-41.09V152H1350Zm0-264.2h-41.09V78H1350Zm339.59,264.2h-41.09V37.84h41.09ZM204.11,578.71v40.14c0,32.12,26.59,58.21,59.21,58.21a58.24,58.24,0,0,0,58.2-58.21l1.51-1.5h40.14l1.51,1.5c0,55.7-45.67,101.36-101.36,101.36S163,675.05,162,620.36V578.71c1-56.7,44.66-98.34,96.34-101.36h5A101.4,101.4,0,0,1,364.68,578.71l-1.51,1.51H323l-1.51-1.51A58.36,58.36,0,0,0,263.32,520C230.7,520,204.11,546.1,204.11,578.71Zm313.11-95.55H406.86v40.61H517.22c29.62,0,54,24.37,54,54.47V606h-12.9c-9.56-37.27-44-65.93-84.57-65.93-47.77,0-87.43,39.65-87.43,86.47,0,48.73,39.66,87.91,87.43,87.91,41.09,0,75.49-28.66,84.57-67.84h12.9V714.4h41.08V578.24C612.29,525.68,569.3,483.16,517.22,483.16Zm-44,191.11c-24.85,0-46.35-21-46.35-47.78,0-24.36,21.5-45.86,46.35-45.86,26.27,0,47.29,21.5,47.29,45.86C520.56,653.25,499.54,674.27,473.27,674.27Zm454-191.11H686.33V432.43H645.72V616.84c.47,52.08,43,94.12,95.55,95.08H781.4V670.83H741.27a55.67,55.67,0,0,1-54.94-55.42V523.69l130.53.08H927.23c29.62,0,54,24.37,54,54.47V606h-12.9C958.76,568.68,924.36,540,883.75,540c-47.78,0-87.43,39.65-87.43,86.47,0,48.73,39.65,87.91,87.43,87.91,41.09,0,75.49-28.66,84.56-67.84h12.9V714.4h41.09V578.24C1022.3,525.68,979.3,483.16,927.23,483.16Zm-44,191.11c-24.84,0-46.34-21-46.34-47.78,0-24.36,21.5-45.86,46.34-45.86,26.28,0,47.3,21.5,47.3,45.86C930.57,653.25,909.55,674.27,883.27,674.27Zm450.46-191.11L1198,809.47h-44.43l57.33-137.59-91.25-188.72H1166L1232,621.24l57.33-138.08Zm331.79,190.15a55.67,55.67,0,0,1-54.94-55.42V524.25h79V483.16h-79V434.91h0V247.1c0-52.56-43-95.08-95.08-95.08H1405.12v40.61h110.36c29.62,0,54,24.37,54,54.47v27.71h-12.9c-9.55-37.27-44-65.93-84.56-65.93-47.78,0-87.43,39.65-87.43,86.47,0,48.73,39.65,87.91,87.43,87.91,41.08,0,75.48-28.67,84.56-67.84h12.9V483.16H1422.34c-52.55,0-95.07,43.48-95.07,96.51v39.66h150a56,56,0,0,1-54.94,54c-.48.48-1,0-1.43,0h-93.64V714.4h95.07c53-1,96-43.48,96-96.51V578.24H1367.88c.95-29.62,24.84-54,54.46-54h147.13v95.08c.48,52.07,43.5,94.11,96,95.07h40.13V673.31Zm-194-330.18c-24.84,0-46.34-21-46.34-47.78,0-24.37,21.5-45.86,46.34-45.86,26.28,0,47.3,21.49,47.3,45.86C1518.83,322.11,1497.81,343.13,1471.53,343.13ZM132,12H109.63V0h56.93V12H144.07v89.68H132Zm59,89.68H179.21V0H191V44.7h32.89V0H236V101.63H223.91v-45H191Zm118.64,0h-54V0h54V12H267.77V44.7h30.78V56.65H267.77V89.54h41.89Z"/></g></g></svg>