<?xml version="1.0" encoding="utf-8"?>
<!-- Generator: Adobe Illustrator 26.0.0, SVG Export Plug-In . SVG Version: 6.00 Build 0)  -->
<svg version="1.1" id="Layer_1" xmlns="http://www.w3.org/2000/svg" xmlns:xlink="http://www.w3.org/1999/xlink" x="0px" y="0px"
	 viewBox="0 0 640 160" style="enable-background:new 0 0 640 160;" xml:space="preserve">
<g>
	<path d="M165.4,71.2L165.4,71.2c3,0,5.4,2.4,5.4,5.4v6.8c0,3-2.4,5.4-5.4,5.4l0,0c-3,0-5.4-2.4-5.4-5.4v-6.8
		C160,73.6,162.4,71.2,165.4,71.2z"/>
	<path d="M185.2,48.8L185.2,48.8c3,0,5.4,2.4,5.4,5.4v51.6c0,3-2.4,5.4-5.4,5.4l0,0c-3,0-5.4-2.4-5.4-5.4V54.2
		C179.9,51.2,182.3,48.8,185.2,48.8z"/>
	<path d="M205.1,32L205.1,32c3,0,5.4,2.4,5.4,5.4v85.2c0,3-2.4,5.4-5.4,5.4l0,0c-3,0-5.4-2.4-5.4-5.4V37.4
		C199.7,34.4,202.1,32,205.1,32z"/>
	<path d="M225,37.6L225,37.6c3,0,5.4,2.4,5.4,5.4v74c0,3-2.4,5.4-5.4,5.4l0,0c-3,0-5.4-2.4-5.4-5.4V43C219.6,40,222,37.6,225,37.6z"
		/>
	<path d="M244.9,48.8L244.9,48.8c3,0,5.4,2.4,5.4,5.4v51.6c0,3-2.4,5.4-5.4,5.4l0,0c-3,0-5.4-2.4-5.4-5.4V54.2
		C239.5,51.2,241.9,48.8,244.9,48.8z"/>
	<path d="M264.7,32L264.7,32c3,0,5.4,2.4,5.4,5.4v85.2c0,3-2.4,5.4-5.4,5.4l0,0c-3,0-5.4-2.4-5.4-5.4V37.4
		C259.4,34.4,261.8,32,264.7,32z"/>
	<path d="M284.6,65.6L284.6,65.6c3,0,5.4,2.4,5.4,5.4v18c0,3-2.4,5.4-5.4,5.4l0,0c-3,0-5.4-2.4-5.4-5.4V71
		C279.2,68,281.7,65.6,284.6,65.6z"/>
	<path d="M304.5,71.2L304.5,71.2c3,0,5.4,2.4,5.4,5.4v6.8c0,3-2.4,5.4-5.4,5.4l0,0c-3,0-5.4-2.4-5.4-5.4v-6.8
		C299.1,73.6,301.5,71.2,304.5,71.2z"/>
	<path d="M324.4,54.4L324.4,54.4c3,0,5.4,2.4,5.4,5.4v40.4c0,3-2.4,5.4-5.4,5.4l0,0c-3,0-5.4-2.4-5.4-5.4V59.8
		C319,56.8,321.4,54.4,324.4,54.4z"/>
	<path d="M344.2,48.8L344.2,48.8c3,0,5.4,2.4,5.4,5.4v51.6c0,3-2.4,5.4-5.4,5.4s-5.4-2.4-5.4-5.4V54.2
		C338.9,51.2,341.3,48.8,344.2,48.8z"/>
	<path d="M364.1,48.8L364.1,48.8c3,0,5.4,2.4,5.4,5.4v51.6c0,3-2.4,5.4-5.4,5.4l0,0c-3,0-5.4-2.4-5.4-5.4V54.2
		C358.8,51.2,361.2,48.8,364.1,48.8z"/>
	<path d="M384,32L384,32c3,0,5.4,2.4,5.4,5.4v85.2c0,3-2.4,5.4-5.4,5.4l0,0c-3,0-5.4-2.4-5.4-5.4V37.4C378.6,34.4,381,32,384,32z"/>
	<path d="M403.9,54.4L403.9,54.4c3,0,5.4,2.4,5.4,5.4v40.4c0,3-2.4,5.4-5.4,5.4l0,0c-3,0-5.4-2.4-5.4-5.4V59.8
		C398.5,56.8,400.9,54.4,403.9,54.4z"/>
	<path d="M423.8,60L423.8,60c3,0,5.4,2.4,5.4,5.4v29.2c0,3-2.4,5.4-5.4,5.4l0,0c-3,0-5.4-2.4-5.4-5.4V65.4
		C418.4,62.4,420.8,60,423.8,60z"/>
	<path d="M443.6,60L443.6,60c3,0,5.4,2.4,5.4,5.4v29.2c0,3-2.4,5.4-5.4,5.4l0,0c-3,0-5.4-2.4-5.4-5.4V65.4
		C438.3,62.4,440.7,60,443.6,60z"/>
	<path d="M463.5,32L463.5,32c3,0,5.4,2.4,5.4,5.4v85.2c0,3-2.4,5.4-5.4,5.4l0,0c-3,0-5.4-2.4-5.4-5.4V37.4
		C458.1,34.4,460.5,32,463.5,32z"/>
	<path d="M483.4,54.4L483.4,54.4c3,0,5.4,2.4,5.4,5.4v40.4c0,3-2.4,5.4-5.4,5.4l0,0c-3,0-5.4-2.4-5.4-5.4V59.8
		C478,56.8,480.4,54.4,483.4,54.4z"/>
	<path d="M503.3,48.8L503.3,48.8c3,0,5.4,2.4,5.4,5.4v51.6c0,3-2.4,5.4-5.4,5.4l0,0c-3,0-5.4-2.4-5.4-5.4V54.2
		C497.9,51.2,500.3,48.8,503.3,48.8z"/>
	<path d="M523.1,37.6L523.1,37.6c3,0,5.4,2.4,5.4,5.4v74c0,3-2.4,5.4-5.4,5.4l0,0c-3,0-5.4-2.4-5.4-5.4V43
		C517.8,40,520.2,37.6,523.1,37.6z"/>
	<path d="M543,60L543,60c3,0,5.4,2.4,5.4,5.4v29.2c0,3-2.4,5.4-5.4,5.4l0,0c-3,0-5.4-2.4-5.4-5.4V65.4C537.6,62.4,540,60,543,60z"/>
	<path d="M562.9,71.2L562.9,71.2c3,0,5.4,2.4,5.4,5.4v6.8c0,3-2.4,5.4-5.4,5.4s-5.4-2.4-5.4-5.4v-6.8
		C557.5,73.6,559.9,71.2,562.9,71.2z"/>
	<path d="M582.8,48.8L582.8,48.8c3,0,5.4,2.4,5.4,5.4v51.6c0,3-2.4,5.4-5.4,5.4l0,0c-3,0-5.4-2.4-5.4-5.4V54.2
		C577.4,51.2,579.8,48.8,582.8,48.8z"/>
	<path d="M602.6,71.2L602.6,71.2c3,0,5.4,2.4,5.4,5.4v6.8c0,3-2.4,5.4-5.4,5.4s-5.4-2.4-5.4-5.4v-6.8
		C597.3,73.6,599.7,71.2,602.6,71.2z"/>
	<path d="M80,32c26.5,0,48,21.5,48,48s-21.5,48-48,48s-48-21.5-48-48S53.5,32,80,32 M102,101.1c0.8-1.3,0.5-3-0.8-3.9
		c-0.2-0.2-0.5-0.3-0.8-0.5c-3-1.8-6.2-3.2-9.5-4.4c-6-2-12.2-2.9-18.5-2.9c-2.1,0.1-4.3,0.2-6.4,0.4c-3.8,0.3-7.6,0.9-11.3,1.8
		c-0.3,0.1-0.6,0.1-0.9,0.3c-1.3,0.5-2.1,1.9-1.8,3.3c0.2,1.4,1.5,2.4,2.9,2.4c0.5,0,0.9-0.1,1.4-0.2c4.6-1,9.2-1.6,13.9-1.8
		c3.6-0.1,7.2,0,10.8,0.6C86.8,97,92.4,99,97.4,102c0.3,0.2,0.5,0.3,0.8,0.4C99.6,103,101.2,102.5,102,101.1 M107.9,88
		c1-1.8,0.5-4-1.2-5.1l-0.6-0.3c-3.7-2.2-7.7-4-11.8-5.3c-8.1-2.6-16.6-3.8-25.1-3.4c-4,0.1-7.9,0.6-11.8,1.5
		c-1.6,0.4-3.2,0.8-4.7,1.2c-1.5,0.5-2.5,1.9-2.5,3.4s0.9,2.9,2.3,3.5c0.9,0.3,1.8,0.3,2.7,0c5.4-1.6,11-2.3,16.6-2.3
		c4.2,0,8.5,0.4,12.7,1.2c5.3,1,10.5,2.7,15.3,5.1c1.1,0.5,2.1,1.2,3.1,1.7C104.5,90.3,106.8,89.7,107.9,88 M108.4,74.4
		c2.1,1.3,4.9,0.6,6.1-1.5c0.4-0.7,0.7-1.5,0.7-2.3c0-0.3,0-0.6-0.1-1c-0.3-1.3-1.1-2.3-2.2-3c-3.3-1.9-6.7-3.4-10.3-4.7
		c-8.7-2.9-17.8-4.5-27-4.6c-3.7-0.1-7.5,0-11.2,0.3c-3.5,0.3-7,0.8-10.4,1.6c-1.4,0.3-2.8,0.7-4.1,1.1c-1.8,0.6-3,2.4-3,4.3
		s1.3,3.6,3.2,4.2c0.8,0.2,1.7,0.2,2.6,0c1.4-0.4,2.8-0.8,4.2-1.1c3.8-0.8,7.7-1.3,11.6-1.5c3.4-0.2,6.8-0.2,10.2,0
		c3.3,0.2,6.5,0.6,9.8,1.2c4.6,0.8,9.2,2,13.6,3.8C104.3,72.2,106.4,73.3,108.4,74.4"/>
</g>
</svg>
