<svg id="Layer_1" data-name="Layer 1" xmlns="http://www.w3.org/2000/svg" viewBox="0 0 576 96"><defs><style>.cls-1{fill:#fff;}</style></defs><g id="Layer_1-2" data-name="Layer 1"><path class="cls-1" d="M165.4,71.2h0a5.38,5.38,0,0,1,5.4,5.4v6.8a5.4,5.4,0,0,1-10.8,0V76.6A5.38,5.38,0,0,1,165.4,71.2Zm19.8-28h0a5.38,5.38,0,0,1,5.4,5.4v62.8a5.4,5.4,0,0,1-10.8,0V48.6A5.51,5.51,0,0,1,185.2,43.2ZM205.1,32h0a5.38,5.38,0,0,1,5.4,5.4v85.2a5.4,5.4,0,0,1-10.8,0V37.4A5.38,5.38,0,0,1,205.1,32ZM225,37.6h0a5.38,5.38,0,0,1,5.4,5.4v74a5.4,5.4,0,0,1-10.8,0V43A5.38,5.38,0,0,1,225,37.6ZM244.9,32h0a5.38,5.38,0,0,1,5.4,5.4v85.2a5.4,5.4,0,0,1-10.8,0V37.4A5.38,5.38,0,0,1,244.9,32Zm19.8,33.6h0a5.38,5.38,0,0,1,5.4,5.4V89a5.4,5.4,0,0,1-10.8,0V71A5.51,5.51,0,0,1,264.7,65.6Zm19.9,5.6h0a5.38,5.38,0,0,1,5.4,5.4v6.8a5.4,5.4,0,1,1-10.8,0V76.6A5.44,5.44,0,0,1,284.6,71.2Zm19.9-28h0a5.38,5.38,0,0,1,5.4,5.4v62.8a5.4,5.4,0,0,1-10.8,0V48.6A5.38,5.38,0,0,1,304.5,43.2ZM324.4,32h0a5.38,5.38,0,0,1,5.4,5.4v85.2a5.4,5.4,0,0,1-10.8,0V37.4A5.38,5.38,0,0,1,324.4,32Zm19.8,28h0a5.38,5.38,0,0,1,5.4,5.4V94.6a5.4,5.4,0,0,1-10.8,0V65.4A5.51,5.51,0,0,1,344.2,60Zm19.9-16.8h0a5.38,5.38,0,0,1,5.4,5.4v62.8a5.4,5.4,0,1,1-10.8,0V48.6A5.51,5.51,0,0,1,364.1,43.2ZM384,32h0a5.38,5.38,0,0,1,5.4,5.4v85.2a5.4,5.4,0,1,1-10.8,0V37.4A5.38,5.38,0,0,1,384,32Zm19.9,39.2h0a5.38,5.38,0,0,1,5.4,5.4v6.8a5.4,5.4,0,0,1-10.8,0V76.6A5.38,5.38,0,0,1,403.9,71.2ZM423.8,32h0a5.38,5.38,0,0,1,5.4,5.4v85.2a5.4,5.4,0,1,1-10.8,0V37.4A5.38,5.38,0,0,1,423.8,32Zm19.8,33.6h0A5.38,5.38,0,0,1,449,71V89a5.4,5.4,0,1,1-10.8,0V71A5.51,5.51,0,0,1,443.6,65.6Zm19.9-11.2h0a5.38,5.38,0,0,1,5.4,5.4v40.4a5.4,5.4,0,1,1-10.8,0V59.8A5.38,5.38,0,0,1,463.5,54.4Zm19.9,11.2h0a5.38,5.38,0,0,1,5.4,5.4V89A5.4,5.4,0,0,1,478,89V71A5.38,5.38,0,0,1,483.4,65.6Zm19.9,0h0a5.38,5.38,0,0,1,5.4,5.4V89a5.4,5.4,0,1,1-10.8,0V71A5.38,5.38,0,0,1,503.3,65.6Zm19.8-28h0a5.38,5.38,0,0,1,5.4,5.4v74a5.4,5.4,0,1,1-10.8,0V43A5.51,5.51,0,0,1,523.1,37.6ZM543,32h0a5.38,5.38,0,0,1,5.4,5.4v85.2a5.4,5.4,0,0,1-10.8,0V37.4A5.38,5.38,0,0,1,543,32Zm19.9,39.2h0a5.38,5.38,0,0,1,5.4,5.4v6.8a5.4,5.4,0,1,1-10.8,0V76.6A5.38,5.38,0,0,1,562.9,71.2Zm19.9-28h0a5.38,5.38,0,0,1,5.4,5.4v62.8a5.4,5.4,0,0,1-10.8,0V48.6A5.38,5.38,0,0,1,582.8,43.2Zm19.8,28h0a5.38,5.38,0,0,1,5.4,5.4v6.8a5.4,5.4,0,1,1-10.8,0V76.6A5.51,5.51,0,0,1,602.6,71.2Z" transform="translate(-32 -32)"/></g><g id="Isolation_Mode" data-name="Isolation Mode"><path class="cls-1" d="M80,32a48,48,0,1,0,48,48A48,48,0,0,0,80,32Zm5.1,74.4H78.9V64.8l-5.5,9.5-.1-.1v.1H67.5v-.1l-.1-.1L79,53.8v-.1h6.2v52.7Z" transform="translate(-32 -32)"/></g></svg>