<svg id="Layer_1" data-name="Layer 1" xmlns="http://www.w3.org/2000/svg" viewBox="0 0 576 96"><defs><style>.cls-1{fill:#fff;}</style></defs><path class="cls-1" d="M165.4,71.2h0a5.38,5.38,0,0,1,5.4,5.4v6.8a5.38,5.38,0,0,1-5.4,5.4h0a5.38,5.38,0,0,1-5.4-5.4V76.6A5.38,5.38,0,0,1,165.4,71.2Z" transform="translate(-32 -32)"/><path class="cls-1" d="M185.2,48.8h0a5.38,5.38,0,0,1,5.4,5.4v51.6a5.38,5.38,0,0,1-5.4,5.4h0a5.38,5.38,0,0,1-5.4-5.4V54.2A5.51,5.51,0,0,1,185.2,48.8Z" transform="translate(-32 -32)"/><path class="cls-1" d="M205.1,32h0a5.38,5.38,0,0,1,5.4,5.4v85.2a5.38,5.38,0,0,1-5.4,5.4h0a5.38,5.38,0,0,1-5.4-5.4V37.4A5.38,5.38,0,0,1,205.1,32Z" transform="translate(-32 -32)"/><path class="cls-1" d="M225,37.6h0a5.38,5.38,0,0,1,5.4,5.4v74a5.38,5.38,0,0,1-5.4,5.4h0a5.38,5.38,0,0,1-5.4-5.4V43A5.38,5.38,0,0,1,225,37.6Z" transform="translate(-32 -32)"/><path class="cls-1" d="M244.9,48.8h0a5.38,5.38,0,0,1,5.4,5.4v51.6a5.38,5.38,0,0,1-5.4,5.4h0a5.38,5.38,0,0,1-5.4-5.4V54.2A5.38,5.38,0,0,1,244.9,48.8Z" transform="translate(-32 -32)"/><path class="cls-1" d="M264.7,32h0a5.38,5.38,0,0,1,5.4,5.4v85.2a5.38,5.38,0,0,1-5.4,5.4h0a5.38,5.38,0,0,1-5.4-5.4V37.4A5.51,5.51,0,0,1,264.7,32Z" transform="translate(-32 -32)"/><path class="cls-1" d="M284.6,65.6h0A5.38,5.38,0,0,1,290,71V89a5.38,5.38,0,0,1-5.4,5.4h0a5.38,5.38,0,0,1-5.4-5.4V71A5.44,5.44,0,0,1,284.6,65.6Z" transform="translate(-32 -32)"/><path class="cls-1" d="M304.5,71.2h0a5.38,5.38,0,0,1,5.4,5.4v6.8a5.38,5.38,0,0,1-5.4,5.4h0a5.38,5.38,0,0,1-5.4-5.4V76.6A5.38,5.38,0,0,1,304.5,71.2Z" transform="translate(-32 -32)"/><path class="cls-1" d="M324.4,54.4h0a5.38,5.38,0,0,1,5.4,5.4v40.4a5.38,5.38,0,0,1-5.4,5.4h0a5.38,5.38,0,0,1-5.4-5.4V59.8A5.38,5.38,0,0,1,324.4,54.4Z" transform="translate(-32 -32)"/><path class="cls-1" d="M344.2,48.8h0a5.38,5.38,0,0,1,5.4,5.4v51.6a5.4,5.4,0,0,1-10.8,0V54.2A5.51,5.51,0,0,1,344.2,48.8Z" transform="translate(-32 -32)"/><path class="cls-1" d="M364.1,48.8h0a5.38,5.38,0,0,1,5.4,5.4v51.6a5.38,5.38,0,0,1-5.4,5.4h0a5.38,5.38,0,0,1-5.4-5.4V54.2A5.51,5.51,0,0,1,364.1,48.8Z" transform="translate(-32 -32)"/><path class="cls-1" d="M384,32h0a5.38,5.38,0,0,1,5.4,5.4v85.2A5.38,5.38,0,0,1,384,128h0a5.38,5.38,0,0,1-5.4-5.4V37.4A5.38,5.38,0,0,1,384,32Z" transform="translate(-32 -32)"/><path class="cls-1" d="M403.9,54.4h0a5.38,5.38,0,0,1,5.4,5.4v40.4a5.38,5.38,0,0,1-5.4,5.4h0a5.38,5.38,0,0,1-5.4-5.4V59.8A5.38,5.38,0,0,1,403.9,54.4Z" transform="translate(-32 -32)"/><path class="cls-1" d="M423.8,60h0a5.38,5.38,0,0,1,5.4,5.4V94.6a5.38,5.38,0,0,1-5.4,5.4h0a5.38,5.38,0,0,1-5.4-5.4V65.4A5.38,5.38,0,0,1,423.8,60Z" transform="translate(-32 -32)"/><path class="cls-1" d="M443.6,60h0a5.38,5.38,0,0,1,5.4,5.4V94.6a5.38,5.38,0,0,1-5.4,5.4h0a5.38,5.38,0,0,1-5.4-5.4V65.4A5.51,5.51,0,0,1,443.6,60Z" transform="translate(-32 -32)"/><path class="cls-1" d="M463.5,32h0a5.38,5.38,0,0,1,5.4,5.4v85.2a5.38,5.38,0,0,1-5.4,5.4h0a5.38,5.38,0,0,1-5.4-5.4V37.4A5.38,5.38,0,0,1,463.5,32Z" transform="translate(-32 -32)"/><path class="cls-1" d="M483.4,54.4h0a5.38,5.38,0,0,1,5.4,5.4v40.4a5.38,5.38,0,0,1-5.4,5.4h0a5.38,5.38,0,0,1-5.4-5.4V59.8A5.38,5.38,0,0,1,483.4,54.4Z" transform="translate(-32 -32)"/><path class="cls-1" d="M503.3,48.8h0a5.38,5.38,0,0,1,5.4,5.4v51.6a5.38,5.38,0,0,1-5.4,5.4h0a5.38,5.38,0,0,1-5.4-5.4V54.2A5.38,5.38,0,0,1,503.3,48.8Z" transform="translate(-32 -32)"/><path class="cls-1" d="M523.1,37.6h0a5.38,5.38,0,0,1,5.4,5.4v74a5.38,5.38,0,0,1-5.4,5.4h0a5.38,5.38,0,0,1-5.4-5.4V43A5.51,5.51,0,0,1,523.1,37.6Z" transform="translate(-32 -32)"/><path class="cls-1" d="M543,60h0a5.38,5.38,0,0,1,5.4,5.4V94.6A5.38,5.38,0,0,1,543,100h0a5.38,5.38,0,0,1-5.4-5.4V65.4A5.38,5.38,0,0,1,543,60Z" transform="translate(-32 -32)"/><path class="cls-1" d="M562.9,71.2h0a5.38,5.38,0,0,1,5.4,5.4v6.8a5.4,5.4,0,1,1-10.8,0V76.6A5.38,5.38,0,0,1,562.9,71.2Z" transform="translate(-32 -32)"/><path class="cls-1" d="M582.8,48.8h0a5.38,5.38,0,0,1,5.4,5.4v51.6a5.38,5.38,0,0,1-5.4,5.4h0a5.38,5.38,0,0,1-5.4-5.4V54.2A5.38,5.38,0,0,1,582.8,48.8Z" transform="translate(-32 -32)"/><path class="cls-1" d="M602.6,71.2h0a5.38,5.38,0,0,1,5.4,5.4v6.8a5.4,5.4,0,1,1-10.8,0V76.6A5.51,5.51,0,0,1,602.6,71.2Z" transform="translate(-32 -32)"/><path class="cls-1" d="M80,32a48,48,0,1,0,48,48A48,48,0,0,0,80,32Zm.1,74.4a14.63,14.63,0,0,1-14.8-15h6.2a8.55,8.55,0,1,0,8.8-8.3h-12V53.6H92v6.2H74.5V76.9h5.8A14.77,14.77,0,0,1,94.9,91.6,15,15,0,0,1,80.1,106.4Z" transform="translate(-32 -32)"/></svg>