<svg id="Layer_1" data-name="Layer 1" xmlns="http://www.w3.org/2000/svg" viewBox="0 0 576 96"><defs><style>.cls-1{fill:#fff;}</style></defs><path class="cls-1" d="M165.4,71.2h0a5.38,5.38,0,0,1,5.4,5.4v6.8a5.4,5.4,0,0,1-10.8,0V76.6A5.38,5.38,0,0,1,165.4,71.2Z" transform="translate(-32 -32)"/><path class="cls-1" d="M185.2,71.2h0a5.38,5.38,0,0,1,5.4,5.4v6.8a5.4,5.4,0,0,1-10.8,0V76.6A5.51,5.51,0,0,1,185.2,71.2Z" transform="translate(-32 -32)"/><path class="cls-1" d="M205.1,54.4h0a5.38,5.38,0,0,1,5.4,5.4v40.4a5.4,5.4,0,0,1-10.8,0V59.8A5.38,5.38,0,0,1,205.1,54.4Z" transform="translate(-32 -32)"/><path class="cls-1" d="M225,32h0a5.38,5.38,0,0,1,5.4,5.4v85.2a5.4,5.4,0,1,1-10.8,0V37.4A5.38,5.38,0,0,1,225,32Z" transform="translate(-32 -32)"/><path class="cls-1" d="M244.9,54.4h0a5.38,5.38,0,0,1,5.4,5.4v40.4a5.4,5.4,0,0,1-10.8,0V59.8A5.38,5.38,0,0,1,244.9,54.4Z" transform="translate(-32 -32)"/><path class="cls-1" d="M264.7,65.6h0a5.38,5.38,0,0,1,5.4,5.4V89a5.4,5.4,0,0,1-10.8,0V71A5.51,5.51,0,0,1,264.7,65.6Z" transform="translate(-32 -32)"/><path class="cls-1" d="M284.6,54.4h0a5.38,5.38,0,0,1,5.4,5.4v40.4a5.4,5.4,0,1,1-10.8,0V59.8A5.44,5.44,0,0,1,284.6,54.4Z" transform="translate(-32 -32)"/><path class="cls-1" d="M304.5,65.6h0a5.38,5.38,0,0,1,5.4,5.4V89a5.4,5.4,0,0,1-10.8,0V71A5.38,5.38,0,0,1,304.5,65.6Z" transform="translate(-32 -32)"/><path class="cls-1" d="M324.4,32h0a5.38,5.38,0,0,1,5.4,5.4v85.2a5.4,5.4,0,0,1-10.8,0V37.4A5.38,5.38,0,0,1,324.4,32Z" transform="translate(-32 -32)"/><path class="cls-1" d="M344.2,48.8h0a5.38,5.38,0,0,1,5.4,5.4v51.6a5.4,5.4,0,0,1-10.8,0V54.2A5.51,5.51,0,0,1,344.2,48.8Z" transform="translate(-32 -32)"/><path class="cls-1" d="M364.1,65.6h0a5.38,5.38,0,0,1,5.4,5.4V89a5.4,5.4,0,1,1-10.8,0V71A5.51,5.51,0,0,1,364.1,65.6Z" transform="translate(-32 -32)"/><path class="cls-1" d="M384,32h0a5.38,5.38,0,0,1,5.4,5.4v85.2a5.4,5.4,0,1,1-10.8,0V37.4A5.38,5.38,0,0,1,384,32Z" transform="translate(-32 -32)"/><path class="cls-1" d="M403.9,37.6h0a5.38,5.38,0,0,1,5.4,5.4v74a5.4,5.4,0,0,1-10.8,0V43A5.38,5.38,0,0,1,403.9,37.6Z" transform="translate(-32 -32)"/><path class="cls-1" d="M423.8,60h0a5.38,5.38,0,0,1,5.4,5.4V94.6a5.4,5.4,0,1,1-10.8,0V65.4A5.38,5.38,0,0,1,423.8,60Z" transform="translate(-32 -32)"/><path class="cls-1" d="M443.6,32h0a5.38,5.38,0,0,1,5.4,5.4v85.2a5.4,5.4,0,1,1-10.8,0V37.4A5.51,5.51,0,0,1,443.6,32Z" transform="translate(-32 -32)"/><path class="cls-1" d="M463.5,60h0a5.38,5.38,0,0,1,5.4,5.4V94.6a5.4,5.4,0,1,1-10.8,0V65.4A5.38,5.38,0,0,1,463.5,60Z" transform="translate(-32 -32)"/><path class="cls-1" d="M483.4,43.2h0a5.38,5.38,0,0,1,5.4,5.4v62.8a5.4,5.4,0,0,1-10.8,0V48.6A5.38,5.38,0,0,1,483.4,43.2Z" transform="translate(-32 -32)"/><path class="cls-1" d="M503.3,48.8h0a5.38,5.38,0,0,1,5.4,5.4v51.6a5.4,5.4,0,1,1-10.8,0V54.2A5.38,5.38,0,0,1,503.3,48.8Z" transform="translate(-32 -32)"/><path class="cls-1" d="M523.1,48.8h0a5.38,5.38,0,0,1,5.4,5.4v51.6a5.4,5.4,0,1,1-10.8,0V54.2A5.51,5.51,0,0,1,523.1,48.8Z" transform="translate(-32 -32)"/><path class="cls-1" d="M543,54.4h0a5.38,5.38,0,0,1,5.4,5.4v40.4a5.4,5.4,0,0,1-10.8,0V59.8A5.38,5.38,0,0,1,543,54.4Z" transform="translate(-32 -32)"/><path class="cls-1" d="M562.9,65.6h0a5.38,5.38,0,0,1,5.4,5.4V89a5.4,5.4,0,1,1-10.8,0V71A5.38,5.38,0,0,1,562.9,65.6Z" transform="translate(-32 -32)"/><path class="cls-1" d="M582.8,48.8h0a5.38,5.38,0,0,1,5.4,5.4v51.6a5.4,5.4,0,0,1-10.8,0V54.2A5.38,5.38,0,0,1,582.8,48.8Z" transform="translate(-32 -32)"/><path class="cls-1" d="M602.6,71.2h0a5.38,5.38,0,0,1,5.4,5.4v6.8a5.4,5.4,0,1,1-10.8,0V76.6A5.51,5.51,0,0,1,602.6,71.2Z" transform="translate(-32 -32)"/><path class="cls-1" d="M80,32a48,48,0,1,0,48,48A48,48,0,0,0,80,32ZM94.7,68.4,75.1,100.1H94.7v6.3H65.4v-.2l-.1-.1L88.6,68.3a8.55,8.55,0,0,0-17.1.1h-.2v.1H65.5v-.1h-.1A14.75,14.75,0,0,1,80.2,53.7,14.55,14.55,0,0,1,94.7,68.4Z" transform="translate(-32 -32)"/></svg>