<svg id="Layer_1" data-name="Layer 1" xmlns="http://www.w3.org/2000/svg" viewBox="0 0 576 96"><defs><style>.cls-1{fill:#fff;}</style></defs><path class="cls-1" d="M165.4,71.2h0a5.38,5.38,0,0,1,5.4,5.4v6.8a5.38,5.38,0,0,1-5.4,5.4h0a5.38,5.38,0,0,1-5.4-5.4V76.6A5.38,5.38,0,0,1,165.4,71.2Z" transform="translate(-32 -32)"/><path class="cls-1" d="M185.2,43.2h0a5.38,5.38,0,0,1,5.4,5.4v62.8a5.38,5.38,0,0,1-5.4,5.4h0a5.38,5.38,0,0,1-5.4-5.4V48.6A5.51,5.51,0,0,1,185.2,43.2Z" transform="translate(-32 -32)"/><path class="cls-1" d="M205.1,43.2h0a5.38,5.38,0,0,1,5.4,5.4v62.8a5.38,5.38,0,0,1-5.4,5.4h0a5.38,5.38,0,0,1-5.4-5.4V48.6A5.38,5.38,0,0,1,205.1,43.2Z" transform="translate(-32 -32)"/><path class="cls-1" d="M225,71.2h0a5.38,5.38,0,0,1,5.4,5.4v6.8a5.38,5.38,0,0,1-5.4,5.4h0a5.38,5.38,0,0,1-5.4-5.4V76.6A5.38,5.38,0,0,1,225,71.2Z" transform="translate(-32 -32)"/><path class="cls-1" d="M244.9,60h0a5.38,5.38,0,0,1,5.4,5.4V94.6a5.38,5.38,0,0,1-5.4,5.4h0a5.38,5.38,0,0,1-5.4-5.4V65.4A5.38,5.38,0,0,1,244.9,60Z" transform="translate(-32 -32)"/><path class="cls-1" d="M264.7,37.6h0a5.38,5.38,0,0,1,5.4,5.4v74a5.38,5.38,0,0,1-5.4,5.4h0a5.38,5.38,0,0,1-5.4-5.4V43A5.51,5.51,0,0,1,264.7,37.6Z" transform="translate(-32 -32)"/><path class="cls-1" d="M284.6,32h0a5.38,5.38,0,0,1,5.4,5.4v85.2a5.38,5.38,0,0,1-5.4,5.4h0a5.38,5.38,0,0,1-5.4-5.4V37.4A5.44,5.44,0,0,1,284.6,32Z" transform="translate(-32 -32)"/><path class="cls-1" d="M304.5,60h0a5.38,5.38,0,0,1,5.4,5.4V94.6a5.38,5.38,0,0,1-5.4,5.4h0a5.38,5.38,0,0,1-5.4-5.4V65.4A5.38,5.38,0,0,1,304.5,60Z" transform="translate(-32 -32)"/><path class="cls-1" d="M324.4,65.6h0a5.38,5.38,0,0,1,5.4,5.4V89a5.38,5.38,0,0,1-5.4,5.4h0A5.38,5.38,0,0,1,319,89V71A5.38,5.38,0,0,1,324.4,65.6Z" transform="translate(-32 -32)"/><path class="cls-1" d="M344.2,32h0a5.38,5.38,0,0,1,5.4,5.4v85.2a5.4,5.4,0,0,1-10.8,0V37.4A5.51,5.51,0,0,1,344.2,32Z" transform="translate(-32 -32)"/><path class="cls-1" d="M364.1,37.6h0a5.38,5.38,0,0,1,5.4,5.4v74a5.38,5.38,0,0,1-5.4,5.4h0a5.38,5.38,0,0,1-5.4-5.4V43A5.51,5.51,0,0,1,364.1,37.6Z" transform="translate(-32 -32)"/><path class="cls-1" d="M384,32h0a5.38,5.38,0,0,1,5.4,5.4v85.2A5.38,5.38,0,0,1,384,128h0a5.38,5.38,0,0,1-5.4-5.4V37.4A5.38,5.38,0,0,1,384,32Z" transform="translate(-32 -32)"/><path class="cls-1" d="M403.9,48.8h0a5.38,5.38,0,0,1,5.4,5.4v51.6a5.38,5.38,0,0,1-5.4,5.4h0a5.38,5.38,0,0,1-5.4-5.4V54.2A5.38,5.38,0,0,1,403.9,48.8Z" transform="translate(-32 -32)"/><path class="cls-1" d="M423.8,48.8h0a5.38,5.38,0,0,1,5.4,5.4v51.6a5.38,5.38,0,0,1-5.4,5.4h0a5.38,5.38,0,0,1-5.4-5.4V54.2A5.38,5.38,0,0,1,423.8,48.8Z" transform="translate(-32 -32)"/><path class="cls-1" d="M443.6,37.6h0A5.38,5.38,0,0,1,449,43v74a5.38,5.38,0,0,1-5.4,5.4h0a5.38,5.38,0,0,1-5.4-5.4V43A5.51,5.51,0,0,1,443.6,37.6Z" transform="translate(-32 -32)"/><path class="cls-1" d="M463.5,71.2h0a5.38,5.38,0,0,1,5.4,5.4v6.8a5.38,5.38,0,0,1-5.4,5.4h0a5.38,5.38,0,0,1-5.4-5.4V76.6A5.38,5.38,0,0,1,463.5,71.2Z" transform="translate(-32 -32)"/><path class="cls-1" d="M483.4,48.8h0a5.38,5.38,0,0,1,5.4,5.4v51.6a5.38,5.38,0,0,1-5.4,5.4h0a5.38,5.38,0,0,1-5.4-5.4V54.2A5.38,5.38,0,0,1,483.4,48.8Z" transform="translate(-32 -32)"/><path class="cls-1" d="M503.3,48.8h0a5.38,5.38,0,0,1,5.4,5.4v51.6a5.38,5.38,0,0,1-5.4,5.4h0a5.38,5.38,0,0,1-5.4-5.4V54.2A5.38,5.38,0,0,1,503.3,48.8Z" transform="translate(-32 -32)"/><path class="cls-1" d="M523.1,32h0a5.38,5.38,0,0,1,5.4,5.4v85.2a5.38,5.38,0,0,1-5.4,5.4h0a5.38,5.38,0,0,1-5.4-5.4V37.4A5.51,5.51,0,0,1,523.1,32Z" transform="translate(-32 -32)"/><path class="cls-1" d="M543,32h0a5.38,5.38,0,0,1,5.4,5.4v85.2A5.38,5.38,0,0,1,543,128h0a5.38,5.38,0,0,1-5.4-5.4V37.4A5.38,5.38,0,0,1,543,32Z" transform="translate(-32 -32)"/><path class="cls-1" d="M562.9,60h0a5.38,5.38,0,0,1,5.4,5.4V94.6a5.4,5.4,0,1,1-10.8,0V65.4A5.38,5.38,0,0,1,562.9,60Z" transform="translate(-32 -32)"/><path class="cls-1" d="M582.8,71.2h0a5.38,5.38,0,0,1,5.4,5.4v6.8a5.38,5.38,0,0,1-5.4,5.4h0a5.38,5.38,0,0,1-5.4-5.4V76.6A5.38,5.38,0,0,1,582.8,71.2Z" transform="translate(-32 -32)"/><path class="cls-1" d="M602.6,71.2h0a5.38,5.38,0,0,1,5.4,5.4v6.8a5.4,5.4,0,1,1-10.8,0V76.6A5.51,5.51,0,0,1,602.6,71.2Z" transform="translate(-32 -32)"/><path class="cls-1" d="M90.4,59.8a8.52,8.52,0,0,0-8.5,8.3V92L95.5,61.4A9.63,9.63,0,0,0,90.4,59.8Z" transform="translate(-32 -32)"/><path class="cls-1" d="M85.4,98.4a8,8,0,0,0,5,1.7A8.46,8.46,0,0,0,99,91.9V68.4c0-.2-.1-.4-.1-.6Z" transform="translate(-32 -32)"/><path class="cls-1" d="M80,32a48,48,0,1,0,48,48A48,48,0,0,0,80,32ZM68.3,106.4H62.1V64.8l-5.5,9.5-.1-.1v.1H50.7v-.1l-.1-.1L62.2,53.8v-.1h6.2v52.7Zm36.8-38V91.7a14.66,14.66,0,0,1-14.7,14.7,14.93,14.93,0,0,1-7.6-2.1l-.9,2-.2-.1v.2H75.9v-.2l-.2-.1,2.7-6a14.61,14.61,0,0,1-2.7-8.2V68.4A14.72,14.72,0,0,1,90.4,53.7a15.29,15.29,0,0,1,7.7,2.1l.9-2,.1.1v-.1h5.8v.1l.2.1-2.7,6A14,14,0,0,1,105.1,68.4Z" transform="translate(-32 -32)"/></svg>