<svg id="Layer_1" data-name="Layer 1" xmlns="http://www.w3.org/2000/svg" viewBox="0 0 576 96"><defs><style>.cls-1{fill:#fff;}</style></defs><path class="cls-1" d="M165.4,71.2h0a5.38,5.38,0,0,1,5.4,5.4v6.8a5.38,5.38,0,0,1-5.4,5.4h0a5.38,5.38,0,0,1-5.4-5.4V76.6A5.38,5.38,0,0,1,165.4,71.2Z" transform="translate(-32 -32)"/><path class="cls-1" d="M185.2,43.2h0a5.38,5.38,0,0,1,5.4,5.4v62.8a5.38,5.38,0,0,1-5.4,5.4h0a5.38,5.38,0,0,1-5.4-5.4V48.6A5.51,5.51,0,0,1,185.2,43.2Z" transform="translate(-32 -32)"/><path class="cls-1" d="M205.1,48.8h0a5.38,5.38,0,0,1,5.4,5.4v51.6a5.38,5.38,0,0,1-5.4,5.4h0a5.38,5.38,0,0,1-5.4-5.4V54.2A5.38,5.38,0,0,1,205.1,48.8Z" transform="translate(-32 -32)"/><path class="cls-1" d="M225,54.4h0a5.38,5.38,0,0,1,5.4,5.4v40.4a5.38,5.38,0,0,1-5.4,5.4h0a5.38,5.38,0,0,1-5.4-5.4V59.8A5.38,5.38,0,0,1,225,54.4Z" transform="translate(-32 -32)"/><path class="cls-1" d="M244.9,65.6h0a5.38,5.38,0,0,1,5.4,5.4V89a5.38,5.38,0,0,1-5.4,5.4h0a5.38,5.38,0,0,1-5.4-5.4V71A5.38,5.38,0,0,1,244.9,65.6Z" transform="translate(-32 -32)"/><path class="cls-1" d="M264.7,65.6h0a5.38,5.38,0,0,1,5.4,5.4V89a5.38,5.38,0,0,1-5.4,5.4h0a5.38,5.38,0,0,1-5.4-5.4V71A5.51,5.51,0,0,1,264.7,65.6Z" transform="translate(-32 -32)"/><path class="cls-1" d="M284.6,37.6h0A5.38,5.38,0,0,1,290,43v74a5.38,5.38,0,0,1-5.4,5.4h0a5.38,5.38,0,0,1-5.4-5.4V43A5.44,5.44,0,0,1,284.6,37.6Z" transform="translate(-32 -32)"/><path class="cls-1" d="M304.5,32h0a5.38,5.38,0,0,1,5.4,5.4v85.2a5.38,5.38,0,0,1-5.4,5.4h0a5.38,5.38,0,0,1-5.4-5.4V37.4A5.38,5.38,0,0,1,304.5,32Z" transform="translate(-32 -32)"/><path class="cls-1" d="M324.4,60h0a5.38,5.38,0,0,1,5.4,5.4V94.6a5.38,5.38,0,0,1-5.4,5.4h0a5.38,5.38,0,0,1-5.4-5.4V65.4A5.38,5.38,0,0,1,324.4,60Z" transform="translate(-32 -32)"/><path class="cls-1" d="M344.2,43.2h0a5.38,5.38,0,0,1,5.4,5.4v62.8a5.4,5.4,0,0,1-10.8,0V48.6A5.51,5.51,0,0,1,344.2,43.2Z" transform="translate(-32 -32)"/><path class="cls-1" d="M364.1,32h0a5.38,5.38,0,0,1,5.4,5.4v85.2a5.38,5.38,0,0,1-5.4,5.4h0a5.38,5.38,0,0,1-5.4-5.4V37.4A5.51,5.51,0,0,1,364.1,32Z" transform="translate(-32 -32)"/><path class="cls-1" d="M384,32h0a5.38,5.38,0,0,1,5.4,5.4v85.2A5.38,5.38,0,0,1,384,128h0a5.38,5.38,0,0,1-5.4-5.4V37.4A5.38,5.38,0,0,1,384,32Z" transform="translate(-32 -32)"/><path class="cls-1" d="M403.9,54.4h0a5.38,5.38,0,0,1,5.4,5.4v40.4a5.38,5.38,0,0,1-5.4,5.4h0a5.38,5.38,0,0,1-5.4-5.4V59.8A5.38,5.38,0,0,1,403.9,54.4Z" transform="translate(-32 -32)"/><path class="cls-1" d="M423.8,32h0a5.38,5.38,0,0,1,5.4,5.4v85.2a5.38,5.38,0,0,1-5.4,5.4h0a5.38,5.38,0,0,1-5.4-5.4V37.4A5.38,5.38,0,0,1,423.8,32Z" transform="translate(-32 -32)"/><path class="cls-1" d="M443.6,48.8h0a5.38,5.38,0,0,1,5.4,5.4v51.6a5.38,5.38,0,0,1-5.4,5.4h0a5.38,5.38,0,0,1-5.4-5.4V54.2A5.51,5.51,0,0,1,443.6,48.8Z" transform="translate(-32 -32)"/><path class="cls-1" d="M463.5,43.2h0a5.38,5.38,0,0,1,5.4,5.4v62.8a5.38,5.38,0,0,1-5.4,5.4h0a5.38,5.38,0,0,1-5.4-5.4V48.6A5.38,5.38,0,0,1,463.5,43.2Z" transform="translate(-32 -32)"/><path class="cls-1" d="M483.4,65.6h0a5.38,5.38,0,0,1,5.4,5.4V89a5.38,5.38,0,0,1-5.4,5.4h0A5.38,5.38,0,0,1,478,89V71A5.38,5.38,0,0,1,483.4,65.6Z" transform="translate(-32 -32)"/><path class="cls-1" d="M503.3,43.2h0a5.38,5.38,0,0,1,5.4,5.4v62.8a5.38,5.38,0,0,1-5.4,5.4h0a5.38,5.38,0,0,1-5.4-5.4V48.6A5.38,5.38,0,0,1,503.3,43.2Z" transform="translate(-32 -32)"/><path class="cls-1" d="M523.1,71.2h0a5.38,5.38,0,0,1,5.4,5.4v6.8a5.38,5.38,0,0,1-5.4,5.4h0a5.38,5.38,0,0,1-5.4-5.4V76.6A5.51,5.51,0,0,1,523.1,71.2Z" transform="translate(-32 -32)"/><path class="cls-1" d="M543,32h0a5.38,5.38,0,0,1,5.4,5.4v85.2A5.38,5.38,0,0,1,543,128h0a5.38,5.38,0,0,1-5.4-5.4V37.4A5.38,5.38,0,0,1,543,32Z" transform="translate(-32 -32)"/><path class="cls-1" d="M562.9,48.8h0a5.38,5.38,0,0,1,5.4,5.4v51.6a5.4,5.4,0,1,1-10.8,0V54.2A5.38,5.38,0,0,1,562.9,48.8Z" transform="translate(-32 -32)"/><path class="cls-1" d="M582.8,60h0a5.38,5.38,0,0,1,5.4,5.4V94.6a5.38,5.38,0,0,1-5.4,5.4h0a5.38,5.38,0,0,1-5.4-5.4V65.4A5.38,5.38,0,0,1,582.8,60Z" transform="translate(-32 -32)"/><path class="cls-1" d="M602.6,71.2h0a5.38,5.38,0,0,1,5.4,5.4v6.8a5.4,5.4,0,1,1-10.8,0V76.6A5.51,5.51,0,0,1,602.6,71.2Z" transform="translate(-32 -32)"/><path class="cls-1" d="M80,32a48,48,0,1,0,48,48A48,48,0,0,0,80,32ZM96,88.9H90.2v17.4H84V88.9H60.9v-.1l-.2-.1L72.4,59.5l.2.1v-.2h5.8v.2l.2.1L69.4,82.8H84V53.6h6.3V82.7H96Z" transform="translate(-32 -32)"/></svg>