<?xml version="1.0" encoding="utf-8"?>
<!-- Generator: Adobe Illustrator 26.0.0, SVG Export Plug-In . SVG Version: 6.00 Build 0)  -->
<svg version="1.1" id="Layer_1" xmlns="http://www.w3.org/2000/svg" xmlns:xlink="http://www.w3.org/1999/xlink" x="0px" y="0px"
	 viewBox="0 0 512 128" style="enable-background:new 0 0 512 128;" xml:space="preserve">
<path d="M132.3,57L132.3,57c2.4,0,4.3,1.9,4.3,4.3v5.5c0,2.4-1.9,4.3-4.3,4.3h0c-2.4,0-4.3-1.9-4.3-4.3v-5.5
	C128,58.9,129.9,57,132.3,57z"/>
<path d="M148.2,57L148.2,57c2.4,0,4.3,1.9,4.3,4.3v5.5c0,2.4-1.9,4.3-4.3,4.3h0c-2.4,0-4.3-1.9-4.3-4.3v-5.5
	C143.9,58.9,145.8,57,148.2,57z"/>
<path d="M164.1,25.6L164.1,25.6c2.4,0,4.3,1.9,4.3,4.3v68.2c0,2.4-1.9,4.3-4.3,4.3h0c-2.4,0-4.3-1.9-4.3-4.3V29.9
	C159.8,27.5,161.7,25.6,164.1,25.6z"/>
<path d="M180,43.5L180,43.5c2.4,0,4.3,1.9,4.3,4.3v32.4c0,2.4-1.9,4.3-4.3,4.3h0c-2.4,0-4.3-1.9-4.3-4.3V47.8
	C175.7,45.4,177.6,43.5,180,43.5z"/>
<path d="M195.9,30.1L195.9,30.1c2.4,0,4.3,1.9,4.3,4.3v59.2c0,2.4-1.9,4.3-4.3,4.3h0c-2.4,0-4.3-1.9-4.3-4.3V34.4
	C191.6,32,193.5,30.1,195.9,30.1z"/>
<path d="M211.8,39L211.8,39c2.4,0,4.3,1.9,4.3,4.3v41.3c0,2.4-1.9,4.3-4.3,4.3h0c-2.4,0-4.3-1.9-4.3-4.3V43.3
	C207.5,41,209.4,39,211.8,39z"/>
<path d="M227.7,48L227.7,48c2.4,0,4.3,1.9,4.3,4.3v23.4c0,2.4-1.9,4.3-4.3,4.3h0c-2.4,0-4.3-1.9-4.3-4.3V52.3
	C223.4,49.9,225.3,48,227.7,48z"/>
<path d="M243.6,25.6L243.6,25.6c2.4,0,4.3,1.9,4.3,4.3v68.2c0,2.4-1.9,4.3-4.3,4.3h0c-2.4,0-4.3-1.9-4.3-4.3V29.9
	C239.3,27.5,241.2,25.6,243.6,25.6z"/>
<path d="M259.5,34.6L259.5,34.6c2.4,0,4.3,1.9,4.3,4.3v50.3c0,2.4-1.9,4.3-4.3,4.3h0c-2.4,0-4.3-1.9-4.3-4.3V38.9
	C255.2,36.5,257.1,34.6,259.5,34.6z"/>
<path d="M275.4,57L275.4,57c2.4,0,4.3,1.9,4.3,4.3v5.5c0,2.4-1.9,4.3-4.3,4.3l0,0c-2.4,0-4.3-1.9-4.3-4.3v-5.5
	C271.1,58.9,273,57,275.4,57z"/>
<path d="M291.3,57L291.3,57c2.4,0,4.3,1.9,4.3,4.3v5.5c0,2.4-1.9,4.3-4.3,4.3h0c-2.4,0-4.3-1.9-4.3-4.3v-5.5
	C287,58.9,288.9,57,291.3,57z"/>
<path d="M307.2,25.6L307.2,25.6c2.4,0,4.3,1.9,4.3,4.3v68.2c0,2.4-1.9,4.3-4.3,4.3h0c-2.4,0-4.3-1.9-4.3-4.3V29.9
	C302.9,27.5,304.8,25.6,307.2,25.6z"/>
<path d="M323.1,34.6L323.1,34.6c2.4,0,4.3,1.9,4.3,4.3v50.3c0,2.4-1.9,4.3-4.3,4.3l0,0c-2.4,0-4.3-1.9-4.3-4.3V38.9
	C318.8,36.5,320.7,34.6,323.1,34.6z"/>
<path d="M339,25.6L339,25.6c2.4,0,4.3,1.9,4.3,4.3v68.2c0,2.4-1.9,4.3-4.3,4.3h0c-2.4,0-4.3-1.9-4.3-4.3V29.9
	C334.7,27.5,336.6,25.6,339,25.6z"/>
<path d="M354.9,52.5L354.9,52.5c2.4,0,4.3,1.9,4.3,4.3v14.4c0,2.4-1.9,4.3-4.3,4.3h0c-2.4,0-4.3-1.9-4.3-4.3V56.8
	C350.6,54.4,352.5,52.5,354.9,52.5z"/>
<path d="M370.8,30.1L370.8,30.1c2.4,0,4.3,1.9,4.3,4.3v59.2c0,2.4-1.9,4.3-4.3,4.3h0c-2.4,0-4.3-1.9-4.3-4.3V34.4
	C366.5,32,368.4,30.1,370.8,30.1z"/>
<path d="M386.7,30.1L386.7,30.1c2.4,0,4.3,1.9,4.3,4.3v59.2c0,2.4-1.9,4.3-4.3,4.3h0c-2.4,0-4.3-1.9-4.3-4.3V34.4
	C382.4,32,384.3,30.1,386.7,30.1z"/>
<path d="M402.6,34.6L402.6,34.6c2.4,0,4.3,1.9,4.3,4.3v50.3c0,2.4-1.9,4.3-4.3,4.3h0c-2.4,0-4.3-1.9-4.3-4.3V38.9
	C398.3,36.5,400.2,34.6,402.6,34.6z"/>
<path d="M418.5,39L418.5,39c2.4,0,4.3,1.9,4.3,4.3v41.3c0,2.4-1.9,4.3-4.3,4.3h0c-2.4,0-4.3-1.9-4.3-4.3V43.3
	C414.2,41,416.1,39,418.5,39z"/>
<path d="M434.4,52.5L434.4,52.5c2.4,0,4.3,1.9,4.3,4.3v14.4c0,2.4-1.9,4.3-4.3,4.3h0c-2.4,0-4.3-1.9-4.3-4.3V56.8
	C430.1,54.4,432,52.5,434.4,52.5z"/>
<path d="M450.3,43.5L450.3,43.5c2.4,0,4.3,1.9,4.3,4.3v32.4c0,2.4-1.9,4.3-4.3,4.3h0c-2.4,0-4.3-1.9-4.3-4.3V47.8
	C446,45.4,447.9,43.5,450.3,43.5z"/>
<path d="M466.2,25.6L466.2,25.6c2.4,0,4.3,1.9,4.3,4.3v68.2c0,2.4-1.9,4.3-4.3,4.3h0c-2.4,0-4.3-1.9-4.3-4.3V29.9
	C461.9,27.5,463.8,25.6,466.2,25.6z"/>
<path d="M482.1,57L482.1,57c2.4,0,4.3,1.9,4.3,4.3v5.5c0,2.4-1.9,4.3-4.3,4.3h0c-2.4,0-4.3-1.9-4.3-4.3v-5.5
	C477.8,58.9,479.7,57,482.1,57z"/>
<g transform="translate(20,20)">
	<path d="M44,5.6c21.2,0,38.4,17.2,38.4,38.4S65.2,82.4,44,82.4S5.6,65.2,5.6,44S22.8,5.6,44,5.6 M61.6,60.9c0.6-1,0.4-2.4-0.6-3.1
		c-0.2-0.1-0.4-0.3-0.6-0.4c-2.4-1.4-4.9-2.6-7.6-3.5C48,52.3,43,51.5,38,51.6c-1.7,0.1-3.4,0.2-5.1,0.3c-3,0.3-6.1,0.7-9.1,1.4
		c-0.2,0-0.5,0.1-0.7,0.2c-1.1,0.4-1.7,1.5-1.4,2.7c0.2,1.1,1.2,2,2.3,1.9c0.4,0,0.8-0.1,1.1-0.2c3.6-0.8,7.4-1.3,11.1-1.5
		c2.9-0.1,5.8,0,8.6,0.5c4.6,0.7,9.1,2.2,13.1,4.6c0.2,0.1,0.4,0.2,0.6,0.3C59.7,62.4,61,62,61.6,60.9 M66.3,50.4
		c0.8-1.4,0.4-3.2-1-4.1L64.8,46c-3-1.8-6.1-3.2-9.4-4.2c-6.5-2.1-13.3-3-20.1-2.7c-3.2,0.1-6.3,0.5-9.5,1.2c-1.3,0.3-2.6,0.6-3.8,1
		c-1.2,0.4-2,1.5-2,2.7c0,1.2,0.7,2.3,1.8,2.8c0.7,0.2,1.4,0.2,2.1,0c4.3-1.3,8.8-1.9,13.3-1.9c3.4,0,6.8,0.3,10.1,0.9
		c4.3,0.8,8.4,2.1,12.3,4.1c0.8,0.4,1.7,0.9,2.5,1.4C63.6,52.2,65.4,51.8,66.3,50.4 M66.7,39.5c1.7,1,3.9,0.5,4.9-1.2
		c0.3-0.6,0.5-1.2,0.5-1.9c0-0.3,0-0.5-0.1-0.8c-0.2-1-0.9-1.9-1.8-2.4c-2.6-1.5-5.4-2.8-8.2-3.7c-7-2.3-14.2-3.6-21.6-3.7
		c-3-0.1-6,0-9,0.3c-2.8,0.2-5.6,0.7-8.3,1.3c-1.1,0.3-2.2,0.5-3.3,0.9c-1.5,0.5-2.4,1.9-2.4,3.4c0,1.6,1.1,2.9,2.6,3.3
		c0.7,0.2,1.4,0.2,2,0c1.1-0.3,2.2-0.6,3.4-0.8c3.1-0.6,6.2-1,9.3-1.2c2.7-0.2,5.5-0.2,8.2,0c2.6,0.2,5.2,0.5,7.8,0.9
		c3.7,0.6,7.4,1.6,10.9,3C63.4,37.8,65.1,38.6,66.7,39.5"/>
</g>
</svg>
