<?xml version="1.0" encoding="utf-8"?>
<!-- Generator: Adobe Illustrator 26.0.0, SVG Export Plug-In . SVG Version: 6.00 Build 0)  -->
<svg version="1.1" id="Layer_1" xmlns="http://www.w3.org/2000/svg" xmlns:xlink="http://www.w3.org/1999/xlink" x="0px" y="0px"
	 viewBox="0 0 640 160" style="enable-background:new 0 0 640 160;" xml:space="preserve">
<g>
	<path d="M165.4,71.2L165.4,71.2c3,0,5.4,2.4,5.4,5.4v6.8c0,3-2.4,5.4-5.4,5.4l0,0c-3,0-5.4-2.4-5.4-5.4v-6.8
		C160,73.6,162.4,71.2,165.4,71.2z"/>
	<path d="M185.2,48.8L185.2,48.8c3,0,5.4,2.4,5.4,5.4v51.6c0,3-2.4,5.4-5.4,5.4l0,0c-3,0-5.4-2.4-5.4-5.4V54.2
		C179.9,51.2,182.3,48.8,185.2,48.8z"/>
	<path d="M205.1,32L205.1,32c3,0,5.4,2.4,5.4,5.4v85.2c0,3-2.4,5.4-5.4,5.4l0,0c-3,0-5.4-2.4-5.4-5.4V37.4
		C199.7,34.4,202.1,32,205.1,32z"/>
	<path d="M225,37.6L225,37.6c3,0,5.4,2.4,5.4,5.4v74c0,3-2.4,5.4-5.4,5.4l0,0c-3,0-5.4-2.4-5.4-5.4V43C219.6,40,222,37.6,225,37.6z"
		/>
	<path d="M244.9,48.8L244.9,48.8c3,0,5.4,2.4,5.4,5.4v51.6c0,3-2.4,5.4-5.4,5.4l0,0c-3,0-5.4-2.4-5.4-5.4V54.2
		C239.5,51.2,241.9,48.8,244.9,48.8z"/>
	<path d="M264.7,32L264.7,32c3,0,5.4,2.4,5.4,5.4v85.2c0,3-2.4,5.4-5.4,5.4l0,0c-3,0-5.4-2.4-5.4-5.4V37.4
		C259.4,34.4,261.8,32,264.7,32z"/>
	<path d="M284.6,65.6L284.6,65.6c3,0,5.4,2.4,5.4,5.4v18c0,3-2.4,5.4-5.4,5.4l0,0c-3,0-5.4-2.4-5.4-5.4V71
		C279.2,68,281.7,65.6,284.6,65.6z"/>
	<path d="M304.5,71.2L304.5,71.2c3,0,5.4,2.4,5.4,5.4v6.8c0,3-2.4,5.4-5.4,5.4l0,0c-3,0-5.4-2.4-5.4-5.4v-6.8
		C299.1,73.6,301.5,71.2,304.5,71.2z"/>
	<path d="M324.4,54.4L324.4,54.4c3,0,5.4,2.4,5.4,5.4v40.4c0,3-2.4,5.4-5.4,5.4l0,0c-3,0-5.4-2.4-5.4-5.4V59.8
		C319,56.8,321.4,54.4,324.4,54.4z"/>
	<path d="M344.2,48.8L344.2,48.8c3,0,5.4,2.4,5.4,5.4v51.6c0,3-2.4,5.4-5.4,5.4s-5.4-2.4-5.4-5.4V54.2
		C338.9,51.2,341.3,48.8,344.2,48.8z"/>
	<path d="M364.1,48.8L364.1,48.8c3,0,5.4,2.4,5.4,5.4v51.6c0,3-2.4,5.4-5.4,5.4l0,0c-3,0-5.4-2.4-5.4-5.4V54.2
		C358.8,51.2,361.2,48.8,364.1,48.8z"/>
	<path d="M384,32L384,32c3,0,5.4,2.4,5.4,5.4v85.2c0,3-2.4,5.4-5.4,5.4l0,0c-3,0-5.4-2.4-5.4-5.4V37.4C378.6,34.4,381,32,384,32z"/>
	<path d="M403.9,54.4L403.9,54.4c3,0,5.4,2.4,5.4,5.4v40.4c0,3-2.4,5.4-5.4,5.4l0,0c-3,0-5.4-2.4-5.4-5.4V59.8
		C398.5,56.8,400.9,54.4,403.9,54.4z"/>
	<path d="M423.8,60L423.8,60c3,0,5.4,2.4,5.4,5.4v29.2c0,3-2.4,5.4-5.4,5.4l0,0c-3,0-5.4-2.4-5.4-5.4V65.4
		C418.4,62.4,420.8,60,423.8,60z"/>
	<path d="M443.6,60L443.6,60c3,0,5.4,2.4,5.4,5.4v29.2c0,3-2.4,5.4-5.4,5.4l0,0c-3,0-5.4-2.4-5.4-5.4V65.4
		C438.3,62.4,440.7,60,443.6,60z"/>
	<path d="M463.5,32L463.5,32c3,0,5.4,2.4,5.4,5.4v85.2c0,3-2.4,5.4-5.4,5.4l0,0c-3,0-5.4-2.4-5.4-5.4V37.4
		C458.1,34.4,460.5,32,463.5,32z"/>
	<path d="M483.4,54.4L483.4,54.4c3,0,5.4,2.4,5.4,5.4v40.4c0,3-2.4,5.4-5.4,5.4l0,0c-3,0-5.4-2.4-5.4-5.4V59.8
		C478,56.8,480.4,54.4,483.4,54.4z"/>
	<path d="M503.3,48.8L503.3,48.8c3,0,5.4,2.4,5.4,5.4v51.6c0,3-2.4,5.4-5.4,5.4l0,0c-3,0-5.4-2.4-5.4-5.4V54.2
		C497.9,51.2,500.3,48.8,503.3,48.8z"/>
	<path d="M523.1,37.6L523.1,37.6c3,0,5.4,2.4,5.4,5.4v74c0,3-2.4,5.4-5.4,5.4l0,0c-3,0-5.4-2.4-5.4-5.4V43
		C517.8,40,520.2,37.6,523.1,37.6z"/>
	<path d="M543,60L543,60c3,0,5.4,2.4,5.4,5.4v29.2c0,3-2.4,5.4-5.4,5.4l0,0c-3,0-5.4-2.4-5.4-5.4V65.4C537.6,62.4,540,60,543,60z"/>
	<path d="M562.9,71.2L562.9,71.2c3,0,5.4,2.4,5.4,5.4v6.8c0,3-2.4,5.4-5.4,5.4s-5.4-2.4-5.4-5.4v-6.8
		C557.5,73.6,559.9,71.2,562.9,71.2z"/>
	<path d="M582.8,48.8L582.8,48.8c3,0,5.4,2.4,5.4,5.4v51.6c0,3-2.4,5.4-5.4,5.4l0,0c-3,0-5.4-2.4-5.4-5.4V54.2
		C577.4,51.2,579.8,48.8,582.8,48.8z"/>
	<path d="M602.6,71.2L602.6,71.2c3,0,5.4,2.4,5.4,5.4v6.8c0,3-2.4,5.4-5.4,5.4s-5.4-2.4-5.4-5.4v-6.8
		C597.3,73.6,599.7,71.2,602.6,71.2z"/>
</g>
<path d="M80,32c-26.5,0-48,21.5-48,48s21.5,48,48,48s48-21.5,48-48S106.5,32,80,32z M80.1,106.4c-8.2,0-14.9-6.4-14.8-15h6.2
	c0,5.1,3.9,8.7,8.6,8.7c4.6,0,8.5-3.7,8.5-8.5c0-4.7-3.7-8.4-8.3-8.5h-12V53.6h23.7v6.2H74.5v17.1h5.8c8,0.1,14.6,6.6,14.6,14.7
	C94.8,99.8,88.1,106.4,80.1,106.4z"/>
</svg>
