<?xml version="1.0" encoding="utf-8"?>
<!-- Generator: Adobe Illustrator 26.0.0, SVG Export Plug-In . SVG Version: 6.00 Build 0)  -->
<svg version="1.1" id="Layer_1" xmlns="http://www.w3.org/2000/svg" xmlns:xlink="http://www.w3.org/1999/xlink" x="0px" y="0px"
	 viewBox="0 0 640 160" style="enable-background:new 0 0 640 160;" xml:space="preserve">
<g>
	<path d="M165.4,71.2L165.4,71.2c3,0,5.4,2.4,5.4,5.4v6.8c0,3-2.4,5.4-5.4,5.4l0,0c-3,0-5.4-2.4-5.4-5.4v-6.8
		C160,73.6,162.4,71.2,165.4,71.2z"/>
	<path d="M185.2,37.6L185.2,37.6c3,0,5.4,2.4,5.4,5.4v74c0,3-2.4,5.4-5.4,5.4l0,0c-3,0-5.4-2.4-5.4-5.4V43
		C179.9,40,182.3,37.6,185.2,37.6z"/>
	<path d="M205.1,48.8L205.1,48.8c3,0,5.4,2.4,5.4,5.4v51.6c0,3-2.4,5.4-5.4,5.4l0,0c-3,0-5.4-2.4-5.4-5.4V54.2
		C199.7,51.2,202.1,48.8,205.1,48.8z"/>
	<path d="M225,37.6L225,37.6c3,0,5.4,2.4,5.4,5.4v74c0,3-2.4,5.4-5.4,5.4l0,0c-3,0-5.4-2.4-5.4-5.4V43C219.6,40,222,37.6,225,37.6z"
		/>
	<path d="M244.9,43.2L244.9,43.2c3,0,5.4,2.4,5.4,5.4v62.8c0,3-2.4,5.4-5.4,5.4l0,0c-3,0-5.4-2.4-5.4-5.4V48.6
		C239.5,45.6,241.9,43.2,244.9,43.2z"/>
	<path d="M264.7,37.6L264.7,37.6c3,0,5.4,2.4,5.4,5.4v74c0,3-2.4,5.4-5.4,5.4l0,0c-3,0-5.4-2.4-5.4-5.4V43
		C259.4,40,261.8,37.6,264.7,37.6z"/>
	<path d="M284.6,71.2L284.6,71.2c3,0,5.4,2.4,5.4,5.4v6.8c0,3-2.4,5.4-5.4,5.4l0,0c-3,0-5.4-2.4-5.4-5.4v-6.8
		C279.2,73.6,281.7,71.2,284.6,71.2z"/>
	<path d="M304.5,48.8L304.5,48.8c3,0,5.4,2.4,5.4,5.4v51.6c0,3-2.4,5.4-5.4,5.4l0,0c-3,0-5.4-2.4-5.4-5.4V54.2
		C299.1,51.2,301.5,48.8,304.5,48.8z"/>
	<path d="M324.4,48.8L324.4,48.8c3,0,5.4,2.4,5.4,5.4v51.6c0,3-2.4,5.4-5.4,5.4l0,0c-3,0-5.4-2.4-5.4-5.4V54.2
		C319,51.2,321.4,48.8,324.4,48.8z"/>
	<path d="M344.2,48.8L344.2,48.8c3,0,5.4,2.4,5.4,5.4v51.6c0,3-2.4,5.4-5.4,5.4s-5.4-2.4-5.4-5.4V54.2
		C338.9,51.2,341.3,48.8,344.2,48.8z"/>
	<path d="M364.1,65.6L364.1,65.6c3,0,5.4,2.4,5.4,5.4v18c0,3-2.4,5.4-5.4,5.4l0,0c-3,0-5.4-2.4-5.4-5.4V71
		C358.8,68,361.2,65.6,364.1,65.6z"/>
	<path d="M384,32L384,32c3,0,5.4,2.4,5.4,5.4v85.2c0,3-2.4,5.4-5.4,5.4l0,0c-3,0-5.4-2.4-5.4-5.4V37.4C378.6,34.4,381,32,384,32z"/>
	<path d="M403.9,71.2L403.9,71.2c3,0,5.4,2.4,5.4,5.4v6.8c0,3-2.4,5.4-5.4,5.4l0,0c-3,0-5.4-2.4-5.4-5.4v-6.8
		C398.5,73.6,400.9,71.2,403.9,71.2z"/>
	<path d="M423.8,48.8L423.8,48.8c3,0,5.4,2.4,5.4,5.4v51.6c0,3-2.4,5.4-5.4,5.4l0,0c-3,0-5.4-2.4-5.4-5.4V54.2
		C418.4,51.2,420.8,48.8,423.8,48.8z"/>
	<path d="M443.6,65.6L443.6,65.6c3,0,5.4,2.4,5.4,5.4v18c0,3-2.4,5.4-5.4,5.4l0,0c-3,0-5.4-2.4-5.4-5.4V71
		C438.3,68,440.7,65.6,443.6,65.6z"/>
	<path d="M463.5,48.8L463.5,48.8c3,0,5.4,2.4,5.4,5.4v51.6c0,3-2.4,5.4-5.4,5.4l0,0c-3,0-5.4-2.4-5.4-5.4V54.2
		C458.1,51.2,460.5,48.8,463.5,48.8z"/>
	<path d="M483.4,32L483.4,32c3,0,5.4,2.4,5.4,5.4v85.2c0,3-2.4,5.4-5.4,5.4l0,0c-3,0-5.4-2.4-5.4-5.4V37.4
		C478,34.4,480.4,32,483.4,32z"/>
	<path d="M503.3,32L503.3,32c3,0,5.4,2.4,5.4,5.4v85.2c0,3-2.4,5.4-5.4,5.4l0,0c-3,0-5.4-2.4-5.4-5.4V37.4
		C497.9,34.4,500.3,32,503.3,32z"/>
	<path d="M523.1,32L523.1,32c3,0,5.4,2.4,5.4,5.4v85.2c0,3-2.4,5.4-5.4,5.4l0,0c-3,0-5.4-2.4-5.4-5.4V37.4
		C517.8,34.4,520.2,32,523.1,32z"/>
	<path d="M543,37.6L543,37.6c3,0,5.4,2.4,5.4,5.4v74c0,3-2.4,5.4-5.4,5.4l0,0c-3,0-5.4-2.4-5.4-5.4V43C537.6,40,540,37.6,543,37.6z"
		/>
	<path d="M562.9,54.4L562.9,54.4c3,0,5.4,2.4,5.4,5.4v40.4c0,3-2.4,5.4-5.4,5.4s-5.4-2.4-5.4-5.4V59.8
		C557.5,56.8,559.9,54.4,562.9,54.4z"/>
	<path d="M582.8,54.4L582.8,54.4c3,0,5.4,2.4,5.4,5.4v40.4c0,3-2.4,5.4-5.4,5.4l0,0c-3,0-5.4-2.4-5.4-5.4V59.8
		C577.4,56.8,579.8,54.4,582.8,54.4z"/>
	<path d="M602.6,71.2L602.6,71.2c3,0,5.4,2.4,5.4,5.4v6.8c0,3-2.4,5.4-5.4,5.4s-5.4-2.4-5.4-5.4v-6.8
		C597.3,73.6,599.7,71.2,602.6,71.2z"/>
</g>
<g>
	<path d="M80,59.8c-4.7,0-8.5,3.7-8.6,8.3v3.1c0,4.7,3.9,8.5,8.6,8.5c4.7,0,8.5-3.7,8.5-8.5v-2.9C88.5,63.7,84.7,59.8,80,59.8z"/>
	<path d="M80,32c-26.5,0-48,21.5-48,48s21.5,48,48,48s48-21.5,48-48S106.5,32,80,32z M94.7,68.4v23.3c0,8.2-6.6,14.7-14.7,14.7
		s-14.7-6.6-14.7-14.7h0.2v-0.2h5.8v0.2h0.1c0,4.7,3.9,8.5,8.6,8.5c4.6,0,8.4-3.6,8.5-8.2v-8.5C86.1,85,83.1,86,80,86
		c-8.1,0-14.6-6.5-14.7-14.5v-3.4c0.1-8,6.6-14.5,14.7-14.5s14.6,6.5,14.7,14.5V68.4z"/>
</g>
</svg>
