<?xml version="1.0" encoding="utf-8"?>
<!-- Generator: Adobe Illustrator 26.0.0, SVG Export Plug-In . SVG Version: 6.00 Build 0)  -->
<svg version="1.1" id="Layer_1" xmlns="http://www.w3.org/2000/svg" xmlns:xlink="http://www.w3.org/1999/xlink" x="0px" y="0px"
	 viewBox="0 0 640 160" style="enable-background:new 0 0 640 160;" xml:space="preserve">
<g>
	<path d="M165.4,71.2L165.4,71.2c3,0,5.4,2.4,5.4,5.4v6.8c0,3-2.4,5.4-5.4,5.4l0,0c-3,0-5.4-2.4-5.4-5.4v-6.8
		C160,73.6,162.4,71.2,165.4,71.2z"/>
	<path d="M185.2,43.2L185.2,43.2c3,0,5.4,2.4,5.4,5.4v62.8c0,3-2.4,5.4-5.4,5.4l0,0c-3,0-5.4-2.4-5.4-5.4V48.6
		C179.9,45.6,182.3,43.2,185.2,43.2z"/>
	<path d="M205.1,60L205.1,60c3,0,5.4,2.4,5.4,5.4v29.2c0,3-2.4,5.4-5.4,5.4l0,0c-3,0-5.4-2.4-5.4-5.4V65.4
		C199.7,62.4,202.1,60,205.1,60z"/>
	<path d="M225,43.2L225,43.2c3,0,5.4,2.4,5.4,5.4v62.8c0,3-2.4,5.4-5.4,5.4l0,0c-3,0-5.4-2.4-5.4-5.4V48.6
		C219.6,45.6,222,43.2,225,43.2z"/>
	<path d="M244.9,43.2L244.9,43.2c3,0,5.4,2.4,5.4,5.4v62.8c0,3-2.4,5.4-5.4,5.4l0,0c-3,0-5.4-2.4-5.4-5.4V48.6
		C239.5,45.6,241.9,43.2,244.9,43.2z"/>
	<path d="M264.7,48.8L264.7,48.8c3,0,5.4,2.4,5.4,5.4v51.6c0,3-2.4,5.4-5.4,5.4l0,0c-3,0-5.4-2.4-5.4-5.4V54.2
		C259.4,51.2,261.8,48.8,264.7,48.8z"/>
	<path d="M284.6,65.6L284.6,65.6c3,0,5.4,2.4,5.4,5.4v18c0,3-2.4,5.4-5.4,5.4l0,0c-3,0-5.4-2.4-5.4-5.4V71
		C279.2,68,281.7,65.6,284.6,65.6z"/>
	<path d="M304.5,60L304.5,60c3,0,5.4,2.4,5.4,5.4v29.2c0,3-2.4,5.4-5.4,5.4l0,0c-3,0-5.4-2.4-5.4-5.4V65.4
		C299.1,62.4,301.5,60,304.5,60z"/>
	<path d="M324.4,32L324.4,32c3,0,5.4,2.4,5.4,5.4v85.2c0,3-2.4,5.4-5.4,5.4l0,0c-3,0-5.4-2.4-5.4-5.4V37.4
		C319,34.4,321.4,32,324.4,32z"/>
	<path d="M344.2,71.2L344.2,71.2c3,0,5.4,2.4,5.4,5.4v6.8c0,3-2.4,5.4-5.4,5.4s-5.4-2.4-5.4-5.4v-6.8
		C338.9,73.6,341.3,71.2,344.2,71.2z"/>
	<path d="M364.1,32L364.1,32c3,0,5.4,2.4,5.4,5.4v85.2c0,3-2.4,5.4-5.4,5.4l0,0c-3,0-5.4-2.4-5.4-5.4V37.4
		C358.8,34.4,361.2,32,364.1,32z"/>
	<path d="M384,32L384,32c3,0,5.4,2.4,5.4,5.4v85.2c0,3-2.4,5.4-5.4,5.4l0,0c-3,0-5.4-2.4-5.4-5.4V37.4C378.6,34.4,381,32,384,32z"/>
	<path d="M403.9,65.6L403.9,65.6c3,0,5.4,2.4,5.4,5.4v18c0,3-2.4,5.4-5.4,5.4l0,0c-3,0-5.4-2.4-5.4-5.4V71
		C398.5,68,400.9,65.6,403.9,65.6z"/>
	<path d="M423.8,71.2L423.8,71.2c3,0,5.4,2.4,5.4,5.4v6.8c0,3-2.4,5.4-5.4,5.4l0,0c-3,0-5.4-2.4-5.4-5.4v-6.8
		C418.4,73.6,420.8,71.2,423.8,71.2z"/>
	<path d="M443.6,48.8L443.6,48.8c3,0,5.4,2.4,5.4,5.4v51.6c0,3-2.4,5.4-5.4,5.4l0,0c-3,0-5.4-2.4-5.4-5.4V54.2
		C438.3,51.2,440.7,48.8,443.6,48.8z"/>
	<path d="M463.5,54.4L463.5,54.4c3,0,5.4,2.4,5.4,5.4v40.4c0,3-2.4,5.4-5.4,5.4l0,0c-3,0-5.4-2.4-5.4-5.4V59.8
		C458.1,56.8,460.5,54.4,463.5,54.4z"/>
	<path d="M483.4,32L483.4,32c3,0,5.4,2.4,5.4,5.4v85.2c0,3-2.4,5.4-5.4,5.4l0,0c-3,0-5.4-2.4-5.4-5.4V37.4
		C478,34.4,480.4,32,483.4,32z"/>
	<path d="M503.3,37.6L503.3,37.6c3,0,5.4,2.4,5.4,5.4v74c0,3-2.4,5.4-5.4,5.4l0,0c-3,0-5.4-2.4-5.4-5.4V43
		C497.9,40,500.3,37.6,503.3,37.6z"/>
	<path d="M523.1,32L523.1,32c3,0,5.4,2.4,5.4,5.4v85.2c0,3-2.4,5.4-5.4,5.4l0,0c-3,0-5.4-2.4-5.4-5.4V37.4
		C517.8,34.4,520.2,32,523.1,32z"/>
	<path d="M543,60L543,60c3,0,5.4,2.4,5.4,5.4v29.2c0,3-2.4,5.4-5.4,5.4l0,0c-3,0-5.4-2.4-5.4-5.4V65.4C537.6,62.4,540,60,543,60z"/>
	<path d="M562.9,65.6L562.9,65.6c3,0,5.4,2.4,5.4,5.4v18c0,3-2.4,5.4-5.4,5.4s-5.4-2.4-5.4-5.4V71C557.5,68,559.9,65.6,562.9,65.6z"
		/>
	<path d="M582.8,65.6L582.8,65.6c3,0,5.4,2.4,5.4,5.4v18c0,3-2.4,5.4-5.4,5.4l0,0c-3,0-5.4-2.4-5.4-5.4V71
		C577.4,68,579.8,65.6,582.8,65.6z"/>
	<path d="M602.6,71.2L602.6,71.2c3,0,5.4,2.4,5.4,5.4v6.8c0,3-2.4,5.4-5.4,5.4s-5.4-2.4-5.4-5.4v-6.8
		C597.3,73.6,599.7,71.2,602.6,71.2z"/>
</g>
<g>
	<path d="M71.5,91.6c0,4.7,3.7,8.5,8.5,8.5s8.5-3.7,8.5-8.5v-2.8c0-4.7-3.7-8.6-8.5-8.6s-8.5,3.9-8.5,8.6V91.6z"/>
	<path d="M80,32c-26.5,0-48,21.5-48,48s21.5,48,48,48s48-21.5,48-48S106.5,32,80,32z M88.5,68.4c0-4.7-3.7-8.5-8.5-8.5
		c-4.7,0-8.4,3.7-8.5,8.3v8.5C73.9,75,76.9,74,80,74c8.1,0,14.6,6.5,14.7,14.6v3.1c0,8.2-6.6,14.7-14.7,14.7
		c-8.1,0-14.6-6.5-14.7-14.5V68.1c0.1-8,6.6-14.5,14.7-14.5c8.2,0,14.7,6.6,14.7,14.7h-0.2v0.1h-5.8v-0.1H88.5z"/>
</g>
</svg>
