<?xml version="1.0" encoding="utf-8"?>
<!-- Generator: Adobe Illustrator 26.0.0, SVG Export Plug-In . SVG Version: 6.00 Build 0)  -->
<svg version="1.1" id="Layer_1" xmlns="http://www.w3.org/2000/svg" xmlns:xlink="http://www.w3.org/1999/xlink" x="0px" y="0px"
	 viewBox="0 0 640 160" style="enable-background:new 0 0 640 160;" xml:space="preserve">
<g>
	<path d="M165.4,71.2L165.4,71.2c3,0,5.4,2.4,5.4,5.4v6.8c0,3-2.4,5.4-5.4,5.4l0,0c-3,0-5.4-2.4-5.4-5.4v-6.8
		C160,73.6,162.4,71.2,165.4,71.2z"/>
	<path d="M185.2,43.2L185.2,43.2c3,0,5.4,2.4,5.4,5.4v62.8c0,3-2.4,5.4-5.4,5.4l0,0c-3,0-5.4-2.4-5.4-5.4V48.6
		C179.9,45.6,182.3,43.2,185.2,43.2z"/>
	<path d="M205.1,48.8L205.1,48.8c3,0,5.4,2.4,5.4,5.4v51.6c0,3-2.4,5.4-5.4,5.4l0,0c-3,0-5.4-2.4-5.4-5.4V54.2
		C199.7,51.2,202.1,48.8,205.1,48.8z"/>
	<path d="M225,54.4L225,54.4c3,0,5.4,2.4,5.4,5.4v40.4c0,3-2.4,5.4-5.4,5.4l0,0c-3,0-5.4-2.4-5.4-5.4V59.8
		C219.6,56.8,222,54.4,225,54.4z"/>
	<path d="M244.9,65.6L244.9,65.6c3,0,5.4,2.4,5.4,5.4v18c0,3-2.4,5.4-5.4,5.4l0,0c-3,0-5.4-2.4-5.4-5.4V71
		C239.5,68,241.9,65.6,244.9,65.6z"/>
	<path d="M264.7,65.6L264.7,65.6c3,0,5.4,2.4,5.4,5.4v18c0,3-2.4,5.4-5.4,5.4l0,0c-3,0-5.4-2.4-5.4-5.4V71
		C259.4,68,261.8,65.6,264.7,65.6z"/>
	<path d="M284.6,37.6L284.6,37.6c3,0,5.4,2.4,5.4,5.4v74c0,3-2.4,5.4-5.4,5.4l0,0c-3,0-5.4-2.4-5.4-5.4V43
		C279.2,40,281.7,37.6,284.6,37.6z"/>
	<path d="M304.5,32L304.5,32c3,0,5.4,2.4,5.4,5.4v85.2c0,3-2.4,5.4-5.4,5.4l0,0c-3,0-5.4-2.4-5.4-5.4V37.4
		C299.1,34.4,301.5,32,304.5,32z"/>
	<path d="M324.4,60L324.4,60c3,0,5.4,2.4,5.4,5.4v29.2c0,3-2.4,5.4-5.4,5.4l0,0c-3,0-5.4-2.4-5.4-5.4V65.4
		C319,62.4,321.4,60,324.4,60z"/>
	<path d="M344.2,43.2L344.2,43.2c3,0,5.4,2.4,5.4,5.4v62.8c0,3-2.4,5.4-5.4,5.4s-5.4-2.4-5.4-5.4V48.6
		C338.9,45.6,341.3,43.2,344.2,43.2z"/>
	<path d="M364.1,32L364.1,32c3,0,5.4,2.4,5.4,5.4v85.2c0,3-2.4,5.4-5.4,5.4l0,0c-3,0-5.4-2.4-5.4-5.4V37.4
		C358.8,34.4,361.2,32,364.1,32z"/>
	<path d="M384,32L384,32c3,0,5.4,2.4,5.4,5.4v85.2c0,3-2.4,5.4-5.4,5.4l0,0c-3,0-5.4-2.4-5.4-5.4V37.4C378.6,34.4,381,32,384,32z"/>
	<path d="M403.9,54.4L403.9,54.4c3,0,5.4,2.4,5.4,5.4v40.4c0,3-2.4,5.4-5.4,5.4l0,0c-3,0-5.4-2.4-5.4-5.4V59.8
		C398.5,56.8,400.9,54.4,403.9,54.4z"/>
	<path d="M423.8,32L423.8,32c3,0,5.4,2.4,5.4,5.4v85.2c0,3-2.4,5.4-5.4,5.4l0,0c-3,0-5.4-2.4-5.4-5.4V37.4
		C418.4,34.4,420.8,32,423.8,32z"/>
	<path d="M443.6,48.8L443.6,48.8c3,0,5.4,2.4,5.4,5.4v51.6c0,3-2.4,5.4-5.4,5.4l0,0c-3,0-5.4-2.4-5.4-5.4V54.2
		C438.3,51.2,440.7,48.8,443.6,48.8z"/>
	<path d="M463.5,43.2L463.5,43.2c3,0,5.4,2.4,5.4,5.4v62.8c0,3-2.4,5.4-5.4,5.4l0,0c-3,0-5.4-2.4-5.4-5.4V48.6
		C458.1,45.6,460.5,43.2,463.5,43.2z"/>
	<path d="M483.4,65.6L483.4,65.6c3,0,5.4,2.4,5.4,5.4v18c0,3-2.4,5.4-5.4,5.4l0,0c-3,0-5.4-2.4-5.4-5.4V71
		C478,68,480.4,65.6,483.4,65.6z"/>
	<path d="M503.3,43.2L503.3,43.2c3,0,5.4,2.4,5.4,5.4v62.8c0,3-2.4,5.4-5.4,5.4l0,0c-3,0-5.4-2.4-5.4-5.4V48.6
		C497.9,45.6,500.3,43.2,503.3,43.2z"/>
	<path d="M523.1,71.2L523.1,71.2c3,0,5.4,2.4,5.4,5.4v6.8c0,3-2.4,5.4-5.4,5.4l0,0c-3,0-5.4-2.4-5.4-5.4v-6.8
		C517.8,73.6,520.2,71.2,523.1,71.2z"/>
	<path d="M543,32L543,32c3,0,5.4,2.4,5.4,5.4v85.2c0,3-2.4,5.4-5.4,5.4l0,0c-3,0-5.4-2.4-5.4-5.4V37.4C537.6,34.4,540,32,543,32z"/>
	<path d="M562.9,48.8L562.9,48.8c3,0,5.4,2.4,5.4,5.4v51.6c0,3-2.4,5.4-5.4,5.4s-5.4-2.4-5.4-5.4V54.2
		C557.5,51.2,559.9,48.8,562.9,48.8z"/>
	<path d="M582.8,60L582.8,60c3,0,5.4,2.4,5.4,5.4v29.2c0,3-2.4,5.4-5.4,5.4l0,0c-3,0-5.4-2.4-5.4-5.4V65.4
		C577.4,62.4,579.8,60,582.8,60z"/>
	<path d="M602.6,71.2L602.6,71.2c3,0,5.4,2.4,5.4,5.4v6.8c0,3-2.4,5.4-5.4,5.4s-5.4-2.4-5.4-5.4v-6.8
		C597.3,73.6,599.7,71.2,602.6,71.2z"/>
</g>
<path d="M80,32c-26.5,0-48,21.5-48,48s21.5,48,48,48s48-21.5,48-48S106.5,32,80,32z M96,88.9h-5.8v17.4H84V88.9H60.9v-0.1l-0.2-0.1
	l11.7-29.2l0.2,0.1v-0.2h5.8v0.2l0.2,0.1l-9.2,23.1H84V53.6h6.3v29.1H96V88.9z"/>
</svg>
