<?xml version="1.0" encoding="utf-8"?>
<!-- Generator: Adobe Illustrator 26.0.0, SVG Export Plug-In . SVG Version: 6.00 Build 0)  -->
<svg version="1.1" id="Layer_1" xmlns="http://www.w3.org/2000/svg" xmlns:xlink="http://www.w3.org/1999/xlink" x="0px" y="0px"
	 viewBox="0 0 640 160" style="enable-background:new 0 0 640 160;" xml:space="preserve">
<g>
	<path d="M165.4,71.2L165.4,71.2c3,0,5.4,2.4,5.4,5.4v6.8c0,3-2.4,5.4-5.4,5.4l0,0c-3,0-5.4-2.4-5.4-5.4v-6.8
		C160,73.6,162.4,71.2,165.4,71.2z"/>
	<path d="M185.2,48.8L185.2,48.8c3,0,5.4,2.4,5.4,5.4v51.6c0,3-2.4,5.4-5.4,5.4l0,0c-3,0-5.4-2.4-5.4-5.4V54.2
		C179.9,51.2,182.3,48.8,185.2,48.8z"/>
	<path d="M205.1,71.2L205.1,71.2c3,0,5.4,2.4,5.4,5.4v6.8c0,3-2.4,5.4-5.4,5.4l0,0c-3,0-5.4-2.4-5.4-5.4v-6.8
		C199.7,73.6,202.1,71.2,205.1,71.2z"/>
	<path d="M225,43.2L225,43.2c3,0,5.4,2.4,5.4,5.4v62.8c0,3-2.4,5.4-5.4,5.4l0,0c-3,0-5.4-2.4-5.4-5.4V48.6
		C219.6,45.6,222,43.2,225,43.2z"/>
	<path d="M244.9,48.8L244.9,48.8c3,0,5.4,2.4,5.4,5.4v51.6c0,3-2.4,5.4-5.4,5.4l0,0c-3,0-5.4-2.4-5.4-5.4V54.2
		C239.5,51.2,241.9,48.8,244.9,48.8z"/>
	<path d="M264.7,48.8L264.7,48.8c3,0,5.4,2.4,5.4,5.4v51.6c0,3-2.4,5.4-5.4,5.4l0,0c-3,0-5.4-2.4-5.4-5.4V54.2
		C259.4,51.2,261.8,48.8,264.7,48.8z"/>
	<path d="M284.6,54.4L284.6,54.4c3,0,5.4,2.4,5.4,5.4v40.4c0,3-2.4,5.4-5.4,5.4l0,0c-3,0-5.4-2.4-5.4-5.4V59.8
		C279.2,56.8,281.7,54.4,284.6,54.4z"/>
	<path d="M304.5,48.8L304.5,48.8c3,0,5.4,2.4,5.4,5.4v51.6c0,3-2.4,5.4-5.4,5.4l0,0c-3,0-5.4-2.4-5.4-5.4V54.2
		C299.1,51.2,301.5,48.8,304.5,48.8z"/>
	<path d="M324.4,37.6L324.4,37.6c3,0,5.4,2.4,5.4,5.4v74c0,3-2.4,5.4-5.4,5.4l0,0c-3,0-5.4-2.4-5.4-5.4V43
		C319,40,321.4,37.6,324.4,37.6z"/>
	<path d="M344.2,37.6L344.2,37.6c3,0,5.4,2.4,5.4,5.4v74c0,3-2.4,5.4-5.4,5.4s-5.4-2.4-5.4-5.4V43C338.9,40,341.3,37.6,344.2,37.6z"
		/>
	<path d="M364.1,54.4L364.1,54.4c3,0,5.4,2.4,5.4,5.4v40.4c0,3-2.4,5.4-5.4,5.4l0,0c-3,0-5.4-2.4-5.4-5.4V59.8
		C358.8,56.8,361.2,54.4,364.1,54.4z"/>
	<path d="M384,32L384,32c3,0,5.4,2.4,5.4,5.4v85.2c0,3-2.4,5.4-5.4,5.4l0,0c-3,0-5.4-2.4-5.4-5.4V37.4C378.6,34.4,381,32,384,32z"/>
	<path d="M403.9,32L403.9,32c3,0,5.4,2.4,5.4,5.4v85.2c0,3-2.4,5.4-5.4,5.4l0,0c-3,0-5.4-2.4-5.4-5.4V37.4
		C398.5,34.4,400.9,32,403.9,32z"/>
	<path d="M423.8,71.2L423.8,71.2c3,0,5.4,2.4,5.4,5.4v6.8c0,3-2.4,5.4-5.4,5.4l0,0c-3,0-5.4-2.4-5.4-5.4v-6.8
		C418.4,73.6,420.8,71.2,423.8,71.2z"/>
	<path d="M443.6,48.8L443.6,48.8c3,0,5.4,2.4,5.4,5.4v51.6c0,3-2.4,5.4-5.4,5.4l0,0c-3,0-5.4-2.4-5.4-5.4V54.2
		C438.3,51.2,440.7,48.8,443.6,48.8z"/>
	<path d="M463.5,37.6L463.5,37.6c3,0,5.4,2.4,5.4,5.4v74c0,3-2.4,5.4-5.4,5.4l0,0c-3,0-5.4-2.4-5.4-5.4V43
		C458.1,40,460.5,37.6,463.5,37.6z"/>
	<path d="M483.4,48.8L483.4,48.8c3,0,5.4,2.4,5.4,5.4v51.6c0,3-2.4,5.4-5.4,5.4l0,0c-3,0-5.4-2.4-5.4-5.4V54.2
		C478,51.2,480.4,48.8,483.4,48.8z"/>
	<path d="M503.3,32L503.3,32c3,0,5.4,2.4,5.4,5.4v85.2c0,3-2.4,5.4-5.4,5.4l0,0c-3,0-5.4-2.4-5.4-5.4V37.4
		C497.9,34.4,500.3,32,503.3,32z"/>
	<path d="M523.1,54.4L523.1,54.4c3,0,5.4,2.4,5.4,5.4v40.4c0,3-2.4,5.4-5.4,5.4l0,0c-3,0-5.4-2.4-5.4-5.4V59.8
		C517.8,56.8,520.2,54.4,523.1,54.4z"/>
	<path d="M543,60L543,60c3,0,5.4,2.4,5.4,5.4v29.2c0,3-2.4,5.4-5.4,5.4l0,0c-3,0-5.4-2.4-5.4-5.4V65.4C537.6,62.4,540,60,543,60z"/>
	<path d="M562.9,71.2L562.9,71.2c3,0,5.4,2.4,5.4,5.4v6.8c0,3-2.4,5.4-5.4,5.4s-5.4-2.4-5.4-5.4v-6.8
		C557.5,73.6,559.9,71.2,562.9,71.2z"/>
	<path d="M582.8,65.6L582.8,65.6c3,0,5.4,2.4,5.4,5.4v18c0,3-2.4,5.4-5.4,5.4l0,0c-3,0-5.4-2.4-5.4-5.4V71
		C577.4,68,579.8,65.6,582.8,65.6z"/>
	<path d="M602.6,71.2L602.6,71.2c3,0,5.4,2.4,5.4,5.4v6.8c0,3-2.4,5.4-5.4,5.4s-5.4-2.4-5.4-5.4v-6.8
		C597.3,73.6,599.7,71.2,602.6,71.2z"/>
</g>
<path d="M80,32c-26.5,0-48,21.5-48,48s21.5,48,48,48s48-21.5,48-48S106.5,32,80,32z M74.6,107.4h-7l20-46.5H67.7v-6.3h29.6
	L74.6,107.4z"/>
</svg>
