<?xml version="1.0" encoding="utf-8"?>
<!-- Generator: Adobe Illustrator 26.0.0, SVG Export Plug-In . SVG Version: 6.00 Build 0)  -->
<svg version="1.1" id="Layer_1" xmlns="http://www.w3.org/2000/svg" xmlns:xlink="http://www.w3.org/1999/xlink" x="0px" y="0px"
	 viewBox="0 0 640 160" style="enable-background:new 0 0 640 160;" xml:space="preserve">
<g>
	<path d="M165.4,71.2L165.4,71.2c3,0,5.4,2.4,5.4,5.4v6.8c0,3-2.4,5.4-5.4,5.4l0,0c-3,0-5.4-2.4-5.4-5.4v-6.8
		C160,73.6,162.4,71.2,165.4,71.2z"/>
	<path d="M185.2,54.4L185.2,54.4c3,0,5.4,2.4,5.4,5.4v40.4c0,3-2.4,5.4-5.4,5.4l0,0c-3,0-5.4-2.4-5.4-5.4V59.8
		C179.9,56.8,182.3,54.4,185.2,54.4z"/>
	<path d="M205.1,43.2L205.1,43.2c3,0,5.4,2.4,5.4,5.4v62.8c0,3-2.4,5.4-5.4,5.4l0,0c-3,0-5.4-2.4-5.4-5.4V48.6
		C199.7,45.6,202.1,43.2,205.1,43.2z"/>
	<path d="M225,60L225,60c3,0,5.4,2.4,5.4,5.4v29.2c0,3-2.4,5.4-5.4,5.4l0,0c-3,0-5.4-2.4-5.4-5.4V65.4C219.6,62.4,222,60,225,60z"/>
	<path d="M244.9,65.6L244.9,65.6c3,0,5.4,2.4,5.4,5.4v18c0,3-2.4,5.4-5.4,5.4l0,0c-3,0-5.4-2.4-5.4-5.4V71
		C239.5,68,241.9,65.6,244.9,65.6z"/>
	<path d="M264.7,37.6L264.7,37.6c3,0,5.4,2.4,5.4,5.4v74c0,3-2.4,5.4-5.4,5.4l0,0c-3,0-5.4-2.4-5.4-5.4V43
		C259.4,40,261.8,37.6,264.7,37.6z"/>
	<path d="M284.6,37.6L284.6,37.6c3,0,5.4,2.4,5.4,5.4v74c0,3-2.4,5.4-5.4,5.4l0,0c-3,0-5.4-2.4-5.4-5.4V43
		C279.2,40,281.7,37.6,284.6,37.6z"/>
	<path d="M304.5,32L304.5,32c3,0,5.4,2.4,5.4,5.4v85.2c0,3-2.4,5.4-5.4,5.4l0,0c-3,0-5.4-2.4-5.4-5.4V37.4
		C299.1,34.4,301.5,32,304.5,32z"/>
	<path d="M324.4,37.6L324.4,37.6c3,0,5.4,2.4,5.4,5.4v74c0,3-2.4,5.4-5.4,5.4l0,0c-3,0-5.4-2.4-5.4-5.4V43
		C319,40,321.4,37.6,324.4,37.6z"/>
	<path d="M344.2,48.8L344.2,48.8c3,0,5.4,2.4,5.4,5.4v51.6c0,3-2.4,5.4-5.4,5.4s-5.4-2.4-5.4-5.4V54.2
		C338.9,51.2,341.3,48.8,344.2,48.8z"/>
	<path d="M364.1,43.2L364.1,43.2c3,0,5.4,2.4,5.4,5.4v62.8c0,3-2.4,5.4-5.4,5.4l0,0c-3,0-5.4-2.4-5.4-5.4V48.6
		C358.8,45.6,361.2,43.2,364.1,43.2z"/>
	<path d="M384,32L384,32c3,0,5.4,2.4,5.4,5.4v85.2c0,3-2.4,5.4-5.4,5.4l0,0c-3,0-5.4-2.4-5.4-5.4V37.4C378.6,34.4,381,32,384,32z"/>
	<path d="M403.9,43.2L403.9,43.2c3,0,5.4,2.4,5.4,5.4v62.8c0,3-2.4,5.4-5.4,5.4l0,0c-3,0-5.4-2.4-5.4-5.4V48.6
		C398.5,45.6,400.9,43.2,403.9,43.2z"/>
	<path d="M423.8,60L423.8,60c3,0,5.4,2.4,5.4,5.4v29.2c0,3-2.4,5.4-5.4,5.4l0,0c-3,0-5.4-2.4-5.4-5.4V65.4
		C418.4,62.4,420.8,60,423.8,60z"/>
	<path d="M443.6,37.6L443.6,37.6c3,0,5.4,2.4,5.4,5.4v74c0,3-2.4,5.4-5.4,5.4l0,0c-3,0-5.4-2.4-5.4-5.4V43
		C438.3,40,440.7,37.6,443.6,37.6z"/>
	<path d="M463.5,60L463.5,60c3,0,5.4,2.4,5.4,5.4v29.2c0,3-2.4,5.4-5.4,5.4l0,0c-3,0-5.4-2.4-5.4-5.4V65.4
		C458.1,62.4,460.5,60,463.5,60z"/>
	<path d="M483.4,37.6L483.4,37.6c3,0,5.4,2.4,5.4,5.4v74c0,3-2.4,5.4-5.4,5.4l0,0c-3,0-5.4-2.4-5.4-5.4V43
		C478,40,480.4,37.6,483.4,37.6z"/>
	<path d="M503.3,71.2L503.3,71.2c3,0,5.4,2.4,5.4,5.4v6.8c0,3-2.4,5.4-5.4,5.4l0,0c-3,0-5.4-2.4-5.4-5.4v-6.8
		C497.9,73.6,500.3,71.2,503.3,71.2z"/>
	<path d="M523.1,60L523.1,60c3,0,5.4,2.4,5.4,5.4v29.2c0,3-2.4,5.4-5.4,5.4l0,0c-3,0-5.4-2.4-5.4-5.4V65.4
		C517.8,62.4,520.2,60,523.1,60z"/>
	<path d="M543,32L543,32c3,0,5.4,2.4,5.4,5.4v85.2c0,3-2.4,5.4-5.4,5.4l0,0c-3,0-5.4-2.4-5.4-5.4V37.4C537.6,34.4,540,32,543,32z"/>
	<path d="M562.9,71.2L562.9,71.2c3,0,5.4,2.4,5.4,5.4v6.8c0,3-2.4,5.4-5.4,5.4s-5.4-2.4-5.4-5.4v-6.8
		C557.5,73.6,559.9,71.2,562.9,71.2z"/>
	<path d="M582.8,43.2L582.8,43.2c3,0,5.4,2.4,5.4,5.4v62.8c0,3-2.4,5.4-5.4,5.4l0,0c-3,0-5.4-2.4-5.4-5.4V48.6
		C577.4,45.6,579.8,43.2,582.8,43.2z"/>
	<path d="M602.6,71.2L602.6,71.2c3,0,5.4,2.4,5.4,5.4v6.8c0,3-2.4,5.4-5.4,5.4s-5.4-2.4-5.4-5.4v-6.8
		C597.3,73.6,599.7,71.2,602.6,71.2z"/>
</g>
<path d="M80,32c-26.5,0-48,21.5-48,48s21.5,48,48,48s48-21.5,48-48S106.5,32,80,32z M80.5,76.9c8,0.3,14.2,6.8,14.2,14.7
	c0,8.2-6.6,14.7-14.7,14.7s-14.7-6.6-14.7-14.7v-0.2h6.3v0.2c0,4.7,3.8,8.5,8.5,8.5c4.7,0,8.5-3.7,8.5-8.5c0-4.7-3.8-8.5-8.5-8.5
	h-6.1v-6.3l10.8-17.1H68.2v-6.2h26.6L80.4,76.9H80.5z"/>
</svg>
