<?xml version="1.0" encoding="utf-8"?>
<!-- Generator: Adobe Illustrator 26.0.0, SVG Export Plug-In . SVG Version: 6.00 Build 0)  -->
<svg version="1.1" id="Layer_1" xmlns="http://www.w3.org/2000/svg" xmlns:xlink="http://www.w3.org/1999/xlink" x="0px" y="0px"
	 viewBox="0 0 640 160" style="enable-background:new 0 0 640 160;" xml:space="preserve">
<g>
	<path d="M165.4,71.2L165.4,71.2c3,0,5.4,2.4,5.4,5.4v6.8c0,3-2.4,5.4-5.4,5.4l0,0c-3,0-5.4-2.4-5.4-5.4v-6.8
		C160,73.6,162.4,71.2,165.4,71.2z"/>
	<path d="M185.2,43.2L185.2,43.2c3,0,5.4,2.4,5.4,5.4v62.8c0,3-2.4,5.4-5.4,5.4l0,0c-3,0-5.4-2.4-5.4-5.4V48.6
		C179.9,45.6,182.3,43.2,185.2,43.2z"/>
	<path d="M205.1,43.2L205.1,43.2c3,0,5.4,2.4,5.4,5.4v62.8c0,3-2.4,5.4-5.4,5.4l0,0c-3,0-5.4-2.4-5.4-5.4V48.6
		C199.7,45.6,202.1,43.2,205.1,43.2z"/>
	<path d="M225,71.2L225,71.2c3,0,5.4,2.4,5.4,5.4v6.8c0,3-2.4,5.4-5.4,5.4l0,0c-3,0-5.4-2.4-5.4-5.4v-6.8
		C219.6,73.6,222,71.2,225,71.2z"/>
	<path d="M244.9,60L244.9,60c3,0,5.4,2.4,5.4,5.4v29.2c0,3-2.4,5.4-5.4,5.4l0,0c-3,0-5.4-2.4-5.4-5.4V65.4
		C239.5,62.4,241.9,60,244.9,60z"/>
	<path d="M264.7,37.6L264.7,37.6c3,0,5.4,2.4,5.4,5.4v74c0,3-2.4,5.4-5.4,5.4l0,0c-3,0-5.4-2.4-5.4-5.4V43
		C259.4,40,261.8,37.6,264.7,37.6z"/>
	<path d="M284.6,32L284.6,32c3,0,5.4,2.4,5.4,5.4v85.2c0,3-2.4,5.4-5.4,5.4l0,0c-3,0-5.4-2.4-5.4-5.4V37.4
		C279.2,34.4,281.7,32,284.6,32z"/>
	<path d="M304.5,60L304.5,60c3,0,5.4,2.4,5.4,5.4v29.2c0,3-2.4,5.4-5.4,5.4l0,0c-3,0-5.4-2.4-5.4-5.4V65.4
		C299.1,62.4,301.5,60,304.5,60z"/>
	<path d="M324.4,65.6L324.4,65.6c3,0,5.4,2.4,5.4,5.4v18c0,3-2.4,5.4-5.4,5.4l0,0c-3,0-5.4-2.4-5.4-5.4V71
		C319,68,321.4,65.6,324.4,65.6z"/>
	<path d="M344.2,32L344.2,32c3,0,5.4,2.4,5.4,5.4v85.2c0,3-2.4,5.4-5.4,5.4s-5.4-2.4-5.4-5.4V37.4C338.9,34.4,341.3,32,344.2,32z"/>
	<path d="M364.1,37.6L364.1,37.6c3,0,5.4,2.4,5.4,5.4v74c0,3-2.4,5.4-5.4,5.4l0,0c-3,0-5.4-2.4-5.4-5.4V43
		C358.8,40,361.2,37.6,364.1,37.6z"/>
	<path d="M384,32L384,32c3,0,5.4,2.4,5.4,5.4v85.2c0,3-2.4,5.4-5.4,5.4l0,0c-3,0-5.4-2.4-5.4-5.4V37.4C378.6,34.4,381,32,384,32z"/>
	<path d="M403.9,48.8L403.9,48.8c3,0,5.4,2.4,5.4,5.4v51.6c0,3-2.4,5.4-5.4,5.4l0,0c-3,0-5.4-2.4-5.4-5.4V54.2
		C398.5,51.2,400.9,48.8,403.9,48.8z"/>
	<path d="M423.8,48.8L423.8,48.8c3,0,5.4,2.4,5.4,5.4v51.6c0,3-2.4,5.4-5.4,5.4l0,0c-3,0-5.4-2.4-5.4-5.4V54.2
		C418.4,51.2,420.8,48.8,423.8,48.8z"/>
	<path d="M443.6,37.6L443.6,37.6c3,0,5.4,2.4,5.4,5.4v74c0,3-2.4,5.4-5.4,5.4l0,0c-3,0-5.4-2.4-5.4-5.4V43
		C438.3,40,440.7,37.6,443.6,37.6z"/>
	<path d="M463.5,71.2L463.5,71.2c3,0,5.4,2.4,5.4,5.4v6.8c0,3-2.4,5.4-5.4,5.4l0,0c-3,0-5.4-2.4-5.4-5.4v-6.8
		C458.1,73.6,460.5,71.2,463.5,71.2z"/>
	<path d="M483.4,48.8L483.4,48.8c3,0,5.4,2.4,5.4,5.4v51.6c0,3-2.4,5.4-5.4,5.4l0,0c-3,0-5.4-2.4-5.4-5.4V54.2
		C478,51.2,480.4,48.8,483.4,48.8z"/>
	<path d="M503.3,48.8L503.3,48.8c3,0,5.4,2.4,5.4,5.4v51.6c0,3-2.4,5.4-5.4,5.4l0,0c-3,0-5.4-2.4-5.4-5.4V54.2
		C497.9,51.2,500.3,48.8,503.3,48.8z"/>
	<path d="M523.1,32L523.1,32c3,0,5.4,2.4,5.4,5.4v85.2c0,3-2.4,5.4-5.4,5.4l0,0c-3,0-5.4-2.4-5.4-5.4V37.4
		C517.8,34.4,520.2,32,523.1,32z"/>
	<path d="M543,32L543,32c3,0,5.4,2.4,5.4,5.4v85.2c0,3-2.4,5.4-5.4,5.4l0,0c-3,0-5.4-2.4-5.4-5.4V37.4C537.6,34.4,540,32,543,32z"/>
	<path d="M562.9,60L562.9,60c3,0,5.4,2.4,5.4,5.4v29.2c0,3-2.4,5.4-5.4,5.4s-5.4-2.4-5.4-5.4V65.4C557.5,62.4,559.9,60,562.9,60z"/>
	<path d="M582.8,71.2L582.8,71.2c3,0,5.4,2.4,5.4,5.4v6.8c0,3-2.4,5.4-5.4,5.4l0,0c-3,0-5.4-2.4-5.4-5.4v-6.8
		C577.4,73.6,579.8,71.2,582.8,71.2z"/>
	<path d="M602.6,71.2L602.6,71.2c3,0,5.4,2.4,5.4,5.4v6.8c0,3-2.4,5.4-5.4,5.4s-5.4-2.4-5.4-5.4v-6.8
		C597.3,73.6,599.7,71.2,602.6,71.2z"/>
</g>
<g>
	<path d="M90.4,59.8c-4.6,0-8.4,3.7-8.5,8.3v23.5v0.4l13.6-30.6C94.1,60.5,92.3,59.8,90.4,59.8z"/>
	<path d="M85.4,98.4c1.4,1.1,3.1,1.7,5,1.7c4.7,0,8.5-3.6,8.6-8.2V68.4c0-0.2-0.1-0.4-0.1-0.6L85.4,98.4z"/>
	<path d="M80,32c-26.5,0-48,21.5-48,48s21.5,48,48,48s48-21.5,48-48S106.5,32,80,32z M68.3,106.4h-6.2V64.8l-5.5,9.5l-0.1-0.1v0.1
		h-5.8v-0.1l-0.1-0.1l11.6-20.3v-0.1h6.2V106.4z M105.1,68.4v23.3c0,8.2-6.6,14.7-14.7,14.7c-2.8,0-5.4-0.8-7.6-2.1l-0.9,2l-0.2-0.1
		v0.2h-5.8v-0.2l-0.2-0.1l2.7-6c-1.7-2.3-2.6-5.2-2.7-8.2V68.4c0-8.1,6.6-14.7,14.7-14.7c2.8,0,5.5,0.8,7.7,2.1l0.9-2l0.1,0.1v-0.1
		h5.8v0.1l0.2,0.1l-2.7,6C104.1,62.3,105.1,65.2,105.1,68.4z"/>
</g>
</svg>
