<?xml version="1.0" encoding="utf-8"?>
<!-- Generator: Adobe Illustrator 26.0.0, SVG Export Plug-In . SVG Version: 6.00 Build 0)  -->
<svg version="1.1" id="Layer_1" xmlns="http://www.w3.org/2000/svg" xmlns:xlink="http://www.w3.org/1999/xlink" x="0px" y="0px"
	 viewBox="0 0 640 160" style="enable-background:new 0 0 640 160;" xml:space="preserve">
<g>
	<path d="M165.4,71.2L165.4,71.2c3,0,5.4,2.4,5.4,5.4v6.8c0,3-2.4,5.4-5.4,5.4l0,0c-3,0-5.4-2.4-5.4-5.4v-6.8
		C160,73.6,162.4,71.2,165.4,71.2z"/>
	<path d="M185.2,37.6L185.2,37.6c3,0,5.4,2.4,5.4,5.4v74c0,3-2.4,5.4-5.4,5.4l0,0c-3,0-5.4-2.4-5.4-5.4V43
		C179.9,40,182.3,37.6,185.2,37.6z"/>
	<path d="M205.1,65.6L205.1,65.6c3,0,5.4,2.4,5.4,5.4v18c0,3-2.4,5.4-5.4,5.4l0,0c-3,0-5.4-2.4-5.4-5.4V71
		C199.7,68,202.1,65.6,205.1,65.6z"/>
	<path d="M225,65.6L225,65.6c3,0,5.4,2.4,5.4,5.4v18c0,3-2.4,5.4-5.4,5.4l0,0c-3,0-5.4-2.4-5.4-5.4V71C219.6,68,222,65.6,225,65.6z"
		/>
	<path d="M244.9,37.6L244.9,37.6c3,0,5.4,2.4,5.4,5.4v74c0,3-2.4,5.4-5.4,5.4l0,0c-3,0-5.4-2.4-5.4-5.4V43
		C239.5,40,241.9,37.6,244.9,37.6z"/>
	<path d="M264.7,71.2L264.7,71.2c3,0,5.4,2.4,5.4,5.4v6.8c0,3-2.4,5.4-5.4,5.4l0,0c-3,0-5.4-2.4-5.4-5.4v-6.8
		C259.4,73.6,261.8,71.2,264.7,71.2z"/>
	<path d="M284.6,32L284.6,32c3,0,5.4,2.4,5.4,5.4v85.2c0,3-2.4,5.4-5.4,5.4l0,0c-3,0-5.4-2.4-5.4-5.4V37.4
		C279.2,34.4,281.7,32,284.6,32z"/>
	<path d="M304.5,43.2L304.5,43.2c3,0,5.4,2.4,5.4,5.4v62.8c0,3-2.4,5.4-5.4,5.4l0,0c-3,0-5.4-2.4-5.4-5.4V48.6
		C299.1,45.6,301.5,43.2,304.5,43.2z"/>
	<path d="M324.4,71.2L324.4,71.2c3,0,5.4,2.4,5.4,5.4v6.8c0,3-2.4,5.4-5.4,5.4l0,0c-3,0-5.4-2.4-5.4-5.4v-6.8
		C319,73.6,321.4,71.2,324.4,71.2z"/>
	<path d="M344.2,60L344.2,60c3,0,5.4,2.4,5.4,5.4v29.2c0,3-2.4,5.4-5.4,5.4s-5.4-2.4-5.4-5.4V65.4C338.9,62.4,341.3,60,344.2,60z"/>
	<path d="M364.1,37.6L364.1,37.6c3,0,5.4,2.4,5.4,5.4v74c0,3-2.4,5.4-5.4,5.4l0,0c-3,0-5.4-2.4-5.4-5.4V43
		C358.8,40,361.2,37.6,364.1,37.6z"/>
	<path d="M384,32L384,32c3,0,5.4,2.4,5.4,5.4v85.2c0,3-2.4,5.4-5.4,5.4l0,0c-3,0-5.4-2.4-5.4-5.4V37.4C378.6,34.4,381,32,384,32z"/>
	<path d="M403.9,37.6L403.9,37.6c3,0,5.4,2.4,5.4,5.4v74c0,3-2.4,5.4-5.4,5.4l0,0c-3,0-5.4-2.4-5.4-5.4V43
		C398.5,40,400.9,37.6,403.9,37.6z"/>
	<path d="M423.8,43.2L423.8,43.2c3,0,5.4,2.4,5.4,5.4v62.8c0,3-2.4,5.4-5.4,5.4l0,0c-3,0-5.4-2.4-5.4-5.4V48.6
		C418.4,45.6,420.8,43.2,423.8,43.2z"/>
	<path d="M443.6,48.8L443.6,48.8c3,0,5.4,2.4,5.4,5.4v51.6c0,3-2.4,5.4-5.4,5.4l0,0c-3,0-5.4-2.4-5.4-5.4V54.2
		C438.3,51.2,440.7,48.8,443.6,48.8z"/>
	<path d="M463.5,32L463.5,32c3,0,5.4,2.4,5.4,5.4v85.2c0,3-2.4,5.4-5.4,5.4l0,0c-3,0-5.4-2.4-5.4-5.4V37.4
		C458.1,34.4,460.5,32,463.5,32z"/>
	<path d="M483.4,43.2L483.4,43.2c3,0,5.4,2.4,5.4,5.4v62.8c0,3-2.4,5.4-5.4,5.4l0,0c-3,0-5.4-2.4-5.4-5.4V48.6
		C478,45.6,480.4,43.2,483.4,43.2z"/>
	<path d="M503.3,32L503.3,32c3,0,5.4,2.4,5.4,5.4v85.2c0,3-2.4,5.4-5.4,5.4l0,0c-3,0-5.4-2.4-5.4-5.4V37.4
		C497.9,34.4,500.3,32,503.3,32z"/>
	<path d="M523.1,43.2L523.1,43.2c3,0,5.4,2.4,5.4,5.4v62.8c0,3-2.4,5.4-5.4,5.4l0,0c-3,0-5.4-2.4-5.4-5.4V48.6
		C517.8,45.6,520.2,43.2,523.1,43.2z"/>
	<path d="M543,48.8L543,48.8c3,0,5.4,2.4,5.4,5.4v51.6c0,3-2.4,5.4-5.4,5.4l0,0c-3,0-5.4-2.4-5.4-5.4V54.2
		C537.6,51.2,540,48.8,543,48.8z"/>
	<path d="M562.9,43.2L562.9,43.2c3,0,5.4,2.4,5.4,5.4v62.8c0,3-2.4,5.4-5.4,5.4s-5.4-2.4-5.4-5.4V48.6
		C557.5,45.6,559.9,43.2,562.9,43.2z"/>
	<path d="M582.8,65.6L582.8,65.6c3,0,5.4,2.4,5.4,5.4v18c0,3-2.4,5.4-5.4,5.4l0,0c-3,0-5.4-2.4-5.4-5.4V71
		C577.4,68,579.8,65.6,582.8,65.6z"/>
	<path d="M602.6,71.2L602.6,71.2c3,0,5.4,2.4,5.4,5.4v6.8c0,3-2.4,5.4-5.4,5.4s-5.4-2.4-5.4-5.4v-6.8
		C597.3,73.6,599.7,71.2,602.6,71.2z"/>
</g>
<g>
	<path d="M80.1,59.8c-4.7,0-8.6,3.9-8.6,8.5s3.9,8.5,8.6,8.5c4.6,0,8.5-3.9,8.5-8.5S84.7,59.8,80.1,59.8z"/>
	<path d="M80.1,83.2c-4.7,0-8.6,3.7-8.6,8.5c0,4.7,3.9,8.5,8.6,8.5c4.6,0,8.5-3.7,8.5-8.5C88.5,86.9,84.7,83.2,80.1,83.2z"/>
	<path d="M80,32c-26.5,0-48,21.5-48,48s21.5,48,48,48s48-21.5,48-48S106.5,32,80,32z M94.8,91.6c0,8.2-6.7,14.7-14.7,14.7
		c-8.2,0-14.8-6.6-14.8-14.7c0-4.7,2.2-9,5.7-11.6c-3.5-2.8-5.7-7-5.7-11.7c0-8.1,6.6-14.7,14.8-14.7c8,0,14.7,6.6,14.7,14.7
		c0,4.7-2.3,8.9-5.8,11.7C92.6,82.7,94.8,86.9,94.8,91.6z"/>
</g>
</svg>
