<?xml version="1.0" encoding="utf-8"?>
<!-- Generator: Adobe Illustrator 26.0.0, SVG Export Plug-In . SVG Version: 6.00 Build 0)  -->
<svg version="1.1" xmlns="http://www.w3.org/2000/svg" xmlns:xlink="http://www.w3.org/1999/xlink" x="0px" y="0px"
	 viewBox="0 0 640 160" style="enable-background:new 0 0 640 160;" xml:space="preserve">
<g id="Layer_1">
	<g>
		<path d="M165.4,71.2L165.4,71.2c3,0,5.4,2.4,5.4,5.4v6.8c0,3-2.4,5.4-5.4,5.4s-5.4-2.4-5.4-5.4v-6.8
			C160,73.6,162.4,71.2,165.4,71.2z M185.2,43.2L185.2,43.2c3,0,5.4,2.4,5.4,5.4v62.8c0,3-2.4,5.4-5.4,5.4s-5.4-2.4-5.4-5.4V48.6
			C179.9,45.6,182.3,43.2,185.2,43.2z M205.1,32L205.1,32c3,0,5.4,2.4,5.4,5.4v85.2c0,3-2.4,5.4-5.4,5.4s-5.4-2.4-5.4-5.4V37.4
			C199.7,34.4,202.1,32,205.1,32z M225,37.6L225,37.6c3,0,5.4,2.4,5.4,5.4v74c0,3-2.4,5.4-5.4,5.4s-5.4-2.4-5.4-5.4V43
			C219.6,40,222,37.6,225,37.6z M244.9,32L244.9,32c3,0,5.4,2.4,5.4,5.4v85.2c0,3-2.4,5.4-5.4,5.4s-5.4-2.4-5.4-5.4V37.4
			C239.5,34.4,241.9,32,244.9,32z M264.7,65.6L264.7,65.6c3,0,5.4,2.4,5.4,5.4v18c0,3-2.4,5.4-5.4,5.4s-5.4-2.4-5.4-5.4V71
			C259.4,68,261.8,65.6,264.7,65.6z M284.6,71.2L284.6,71.2c3,0,5.4,2.4,5.4,5.4v6.8c0,3-2.4,5.4-5.4,5.4s-5.4-2.4-5.4-5.4v-6.8
			C279.2,73.6,281.7,71.2,284.6,71.2z M304.5,43.2L304.5,43.2c3,0,5.4,2.4,5.4,5.4v62.8c0,3-2.4,5.4-5.4,5.4s-5.4-2.4-5.4-5.4V48.6
			C299.1,45.6,301.5,43.2,304.5,43.2z M324.4,32L324.4,32c3,0,5.4,2.4,5.4,5.4v85.2c0,3-2.4,5.4-5.4,5.4s-5.4-2.4-5.4-5.4V37.4
			C319,34.4,321.4,32,324.4,32z M344.2,60L344.2,60c3,0,5.4,2.4,5.4,5.4v29.2c0,3-2.4,5.4-5.4,5.4s-5.4-2.4-5.4-5.4V65.4
			C338.9,62.4,341.3,60,344.2,60z M364.1,43.2L364.1,43.2c3,0,5.4,2.4,5.4,5.4v62.8c0,3-2.4,5.4-5.4,5.4s-5.4-2.4-5.4-5.4V48.6
			C358.8,45.6,361.2,43.2,364.1,43.2z M384,32L384,32c3,0,5.4,2.4,5.4,5.4v85.2c0,3-2.4,5.4-5.4,5.4s-5.4-2.4-5.4-5.4V37.4
			C378.6,34.4,381,32,384,32z M403.9,71.2L403.9,71.2c3,0,5.4,2.4,5.4,5.4v6.8c0,3-2.4,5.4-5.4,5.4s-5.4-2.4-5.4-5.4v-6.8
			C398.5,73.6,400.9,71.2,403.9,71.2z M423.8,32L423.8,32c3,0,5.4,2.4,5.4,5.4v85.2c0,3-2.4,5.4-5.4,5.4s-5.4-2.4-5.4-5.4V37.4
			C418.4,34.4,420.8,32,423.8,32z M443.6,65.6L443.6,65.6c3,0,5.4,2.4,5.4,5.4v18c0,3-2.4,5.4-5.4,5.4s-5.4-2.4-5.4-5.4V71
			C438.3,68,440.7,65.6,443.6,65.6z M463.5,54.4L463.5,54.4c3,0,5.4,2.4,5.4,5.4v40.4c0,3-2.4,5.4-5.4,5.4s-5.4-2.4-5.4-5.4V59.8
			C458.1,56.8,460.5,54.4,463.5,54.4z M483.4,65.6L483.4,65.6c3,0,5.4,2.4,5.4,5.4v18c0,3-2.4,5.4-5.4,5.4S478,92,478,89V71
			C478,68,480.4,65.6,483.4,65.6z M503.3,65.6L503.3,65.6c3,0,5.4,2.4,5.4,5.4v18c0,3-2.4,5.4-5.4,5.4s-5.4-2.4-5.4-5.4V71
			C497.9,68,500.3,65.6,503.3,65.6z M523.1,37.6L523.1,37.6c3,0,5.4,2.4,5.4,5.4v74c0,3-2.4,5.4-5.4,5.4s-5.4-2.4-5.4-5.4V43
			C517.8,40,520.2,37.6,523.1,37.6z M543,32L543,32c3,0,5.4,2.4,5.4,5.4v85.2c0,3-2.4,5.4-5.4,5.4s-5.4-2.4-5.4-5.4V37.4
			C537.6,34.4,540,32,543,32z M562.9,71.2L562.9,71.2c3,0,5.4,2.4,5.4,5.4v6.8c0,3-2.4,5.4-5.4,5.4s-5.4-2.4-5.4-5.4v-6.8
			C557.5,73.6,559.9,71.2,562.9,71.2z M582.8,43.2L582.8,43.2c3,0,5.4,2.4,5.4,5.4v62.8c0,3-2.4,5.4-5.4,5.4s-5.4-2.4-5.4-5.4V48.6
			C577.4,45.6,579.8,43.2,582.8,43.2z M602.6,71.2L602.6,71.2c3,0,5.4,2.4,5.4,5.4v6.8c0,3-2.4,5.4-5.4,5.4s-5.4-2.4-5.4-5.4v-6.8
			C597.3,73.6,599.7,71.2,602.6,71.2z"/>
	</g>
</g>
<g id="Isolation_Mode">
	<path d="M80,32c-26.5,0-48,21.5-48,48s21.5,48,48,48s48-21.5,48-48S106.5,32,80,32z M85.1,106.4h-6.2V64.8l-5.5,9.5l-0.1-0.1v0.1
		h-5.8v-0.1l-0.1-0.1l11.6-20.3v-0.1h6.2V106.4z"/>
</g>
</svg>
