<?xml version="1.0" encoding="utf-8"?>
<!-- Generator: Adobe Illustrator 26.0.0, SVG Export Plug-In . SVG Version: 6.00 Build 0)  -->
<svg version="1.1" id="Layer_1" xmlns="http://www.w3.org/2000/svg" xmlns:xlink="http://www.w3.org/1999/xlink" x="0px" y="0px"
	 viewBox="0 0 640 160" style="enable-background:new 0 0 640 160;" xml:space="preserve">
<g>
	<path d="M165.4,71.2L165.4,71.2c3,0,5.4,2.4,5.4,5.4v6.8c0,3-2.4,5.4-5.4,5.4s-5.4-2.4-5.4-5.4v-6.8
		C160,73.6,162.4,71.2,165.4,71.2z"/>
	<path d="M185.2,71.2L185.2,71.2c3,0,5.4,2.4,5.4,5.4v6.8c0,3-2.4,5.4-5.4,5.4s-5.4-2.4-5.4-5.4v-6.8
		C179.9,73.6,182.3,71.2,185.2,71.2z"/>
	<path d="M205.1,54.4L205.1,54.4c3,0,5.4,2.4,5.4,5.4v40.4c0,3-2.4,5.4-5.4,5.4s-5.4-2.4-5.4-5.4V59.8
		C199.7,56.8,202.1,54.4,205.1,54.4z"/>
	<path d="M225,32L225,32c3,0,5.4,2.4,5.4,5.4v85.2c0,3-2.4,5.4-5.4,5.4s-5.4-2.4-5.4-5.4V37.4C219.6,34.4,222,32,225,32z"/>
	<path d="M244.9,54.4L244.9,54.4c3,0,5.4,2.4,5.4,5.4v40.4c0,3-2.4,5.4-5.4,5.4s-5.4-2.4-5.4-5.4V59.8
		C239.5,56.8,241.9,54.4,244.9,54.4z"/>
	<path d="M264.7,65.6L264.7,65.6c3,0,5.4,2.4,5.4,5.4v18c0,3-2.4,5.4-5.4,5.4s-5.4-2.4-5.4-5.4V71C259.4,68,261.8,65.6,264.7,65.6z"
		/>
	<path d="M284.6,54.4L284.6,54.4c3,0,5.4,2.4,5.4,5.4v40.4c0,3-2.4,5.4-5.4,5.4s-5.4-2.4-5.4-5.4V59.8
		C279.2,56.8,281.7,54.4,284.6,54.4z"/>
	<path d="M304.5,65.6L304.5,65.6c3,0,5.4,2.4,5.4,5.4v18c0,3-2.4,5.4-5.4,5.4s-5.4-2.4-5.4-5.4V71C299.1,68,301.5,65.6,304.5,65.6z"
		/>
	<path d="M324.4,32L324.4,32c3,0,5.4,2.4,5.4,5.4v85.2c0,3-2.4,5.4-5.4,5.4s-5.4-2.4-5.4-5.4V37.4C319,34.4,321.4,32,324.4,32z"/>
	<path d="M344.2,48.8L344.2,48.8c3,0,5.4,2.4,5.4,5.4v51.6c0,3-2.4,5.4-5.4,5.4s-5.4-2.4-5.4-5.4V54.2
		C338.9,51.2,341.3,48.8,344.2,48.8z"/>
	<path d="M364.1,65.6L364.1,65.6c3,0,5.4,2.4,5.4,5.4v18c0,3-2.4,5.4-5.4,5.4s-5.4-2.4-5.4-5.4V71C358.8,68,361.2,65.6,364.1,65.6z"
		/>
	<path d="M384,32L384,32c3,0,5.4,2.4,5.4,5.4v85.2c0,3-2.4,5.4-5.4,5.4s-5.4-2.4-5.4-5.4V37.4C378.6,34.4,381,32,384,32z"/>
	<path d="M403.9,37.6L403.9,37.6c3,0,5.4,2.4,5.4,5.4v74c0,3-2.4,5.4-5.4,5.4s-5.4-2.4-5.4-5.4V43C398.5,40,400.9,37.6,403.9,37.6z"
		/>
	<path d="M423.8,60L423.8,60c3,0,5.4,2.4,5.4,5.4v29.2c0,3-2.4,5.4-5.4,5.4s-5.4-2.4-5.4-5.4V65.4C418.4,62.4,420.8,60,423.8,60z"/>
	<path d="M443.6,32L443.6,32c3,0,5.4,2.4,5.4,5.4v85.2c0,3-2.4,5.4-5.4,5.4s-5.4-2.4-5.4-5.4V37.4C438.3,34.4,440.7,32,443.6,32z"/>
	<path d="M463.5,60L463.5,60c3,0,5.4,2.4,5.4,5.4v29.2c0,3-2.4,5.4-5.4,5.4s-5.4-2.4-5.4-5.4V65.4C458.1,62.4,460.5,60,463.5,60z"/>
	<path d="M483.4,43.2L483.4,43.2c3,0,5.4,2.4,5.4,5.4v62.8c0,3-2.4,5.4-5.4,5.4s-5.4-2.4-5.4-5.4V48.6
		C478,45.6,480.4,43.2,483.4,43.2z"/>
	<path d="M503.3,48.8L503.3,48.8c3,0,5.4,2.4,5.4,5.4v51.6c0,3-2.4,5.4-5.4,5.4s-5.4-2.4-5.4-5.4V54.2
		C497.9,51.2,500.3,48.8,503.3,48.8z"/>
	<path d="M523.1,48.8L523.1,48.8c3,0,5.4,2.4,5.4,5.4v51.6c0,3-2.4,5.4-5.4,5.4s-5.4-2.4-5.4-5.4V54.2
		C517.8,51.2,520.2,48.8,523.1,48.8z"/>
	<path d="M543,54.4L543,54.4c3,0,5.4,2.4,5.4,5.4v40.4c0,3-2.4,5.4-5.4,5.4s-5.4-2.4-5.4-5.4V59.8C537.6,56.8,540,54.4,543,54.4z"/>
	<path d="M562.9,65.6L562.9,65.6c3,0,5.4,2.4,5.4,5.4v18c0,3-2.4,5.4-5.4,5.4s-5.4-2.4-5.4-5.4V71C557.5,68,559.9,65.6,562.9,65.6z"
		/>
	<path d="M582.8,48.8L582.8,48.8c3,0,5.4,2.4,5.4,5.4v51.6c0,3-2.4,5.4-5.4,5.4s-5.4-2.4-5.4-5.4V54.2
		C577.4,51.2,579.8,48.8,582.8,48.8z"/>
	<path d="M602.6,71.2L602.6,71.2c3,0,5.4,2.4,5.4,5.4v6.8c0,3-2.4,5.4-5.4,5.4s-5.4-2.4-5.4-5.4v-6.8
		C597.3,73.6,599.7,71.2,602.6,71.2z"/>
</g>
<path d="M80,32c-26.5,0-48,21.5-48,48s21.5,48,48,48s48-21.5,48-48S106.5,32,80,32z M94.7,68.4l-19.6,31.7h19.6v6.3H65.4v-0.2
	l-0.1-0.1l23.3-37.8c-0.1-4.6-3.9-8.4-8.5-8.4c-4.7,0-8.6,3.9-8.6,8.5h-0.2v0.1h-5.8v-0.1h-0.1c0-8.1,6.6-14.7,14.8-14.7
	C88.1,53.6,94.8,60.3,94.7,68.4L94.7,68.4z"/>
</svg>
